<svg width="1024" height="1024" viewBox="0 0 1024 1024" fill="none" xmlns="http://www.w3.org/2000/svg">
<g clip-path="url(#clip0_6_2)">
<path d="M317.714 551.73C343.21 565.54 366.464 583.325 389.416 600.93L431.199 632.915C453.606 650.6 476.425 667.76 499.639 684.37C510.66 692.125 522.035 699.315 533.265 706.745C549.11 717.225 574.02 734.09 591.18 740.57C594.245 753.01 596.605 765.525 599.35 778.025L614.975 847.98L655.26 1024H621H606.305H604.915H590.04H448.841C444.14 927.015 433.929 808.63 385.647 722.79C374.588 703.13 361.219 685.455 346.112 668.765C355.018 685.88 364.183 702.805 371.68 720.61C386.606 756.065 396.204 793.19 404.04 830.745C406.991 844.885 410.035 859.065 411.952 873.4C411.898 873.27 411.843 873.145 411.79 873.015C409.51 867.475 408.287 861.26 406.562 855.515C403.955 847.13 400.801 838.925 397.121 830.955C371.11 774.635 315.162 701.91 256.738 677.005C243.768 671.475 230.532 669.215 216.581 667.95C219.449 659.34 223.294 651.4 228.34 643.845C233.008 636.855 238.863 630.435 244.387 624.11C261.755 604.23 280.567 585.95 299.909 568.015C305.779 562.57 312.053 557.37 317.714 551.73Z" fill="#D2D0D0"/>
<path d="M590.04 1024C583.66 1014.93 577.135 1005.92 571.39 996.435C542.425 948.58 518.7 887.585 509.3 832.49C518.105 847.535 525.225 863.54 533.47 878.89C547.365 904.745 562.375 929.925 577.29 955.195C586.355 970.55 595.745 985.58 605.395 1000.57C610.445 1008.41 615.355 1016.58 621 1024H606.305H604.915H590.04Z" fill="#322860"/>
<path d="M532.525 894.75C536.3 900.885 539.32 907.57 542.57 913.995C547.77 924.305 553.18 934.5 558.8 944.585C567.345 959.395 576.06 974.11 584.94 988.72C592.15 1000.45 599.625 1011.95 606.305 1024H604.915C581.095 991.04 563.545 962.415 546.035 925.615C541.245 915.545 536.13 905.31 532.525 894.75Z" fill="#FEFEFE"/>
<path d="M62.2655 1024C71.6765 990.975 78.41 953.825 81.2595 919.645C83.748 889.79 83.897 859.075 89.8425 829.655C95.838 799.98 107.174 772.425 119.631 744.99C129.741 722.72 135.382 705.9 158.142 693.225C181.94 679.975 213.896 678.08 239.755 685.53C274.015 695.405 309.943 728.68 332.303 755.67C349.846 777.07 365.302 800.095 378.462 824.44C387.187 840.395 394.356 856.94 400.97 873.86C404.557 883.04 408.272 892.385 410.569 901.99C407.304 895.51 404.22 888.96 400.612 882.655C390.648 865.255 378.827 849.22 366.778 833.235C338.686 795.955 311.447 766.43 273.103 739.355C263.694 732.71 254.177 726.25 243.883 721.03C249.371 727.735 255.713 733.75 261.587 740.115C268.65 747.77 275.376 755.855 281.88 763.985C296.145 781.82 309.573 800.64 322.786 819.265C351.615 859.44 378.199 901.18 402.415 944.295L415.757 968.285C418.53 973.305 421.957 978.51 423.693 983.985C426.173 991.8 426.743 1014.94 427.201 1024H425.805H417.207H414.066H399.828H339.357H330.98H253.219H213.255H62.2655Z" fill="#D2D0D0"/>
<path d="M330.98 1024C320.637 1013.68 311.541 1001.86 302.621 990.305C259.323 934.23 222.037 866.25 203.834 797.565C201.112 787.295 198.022 776.33 196.997 765.75C204.635 775.36 210.402 787.035 216.389 797.73L241.016 841.105C253.104 861.83 265.732 882.235 278.886 902.305C287.224 915.2 296.252 928.05 303.578 941.545C317.909 967.955 327.355 996.575 339.357 1024H330.98Z" fill="#322860"/>
<path d="M211.396 805.365C212.371 806.26 236.267 854.515 240.221 861.775C250.013 879.77 259.893 897.645 271.15 914.78C282.087 931.43 293.469 947.675 303.728 964.765C307.993 971.875 312.484 979 315.693 986.655C311.767 983.425 305.426 971.08 301.974 966.195C294.573 955.72 286.749 945.53 279.556 934.915C261.188 907.805 245.637 880.43 231.155 851.09C224.359 837.325 216.024 819.915 211.396 805.365Z" fill="#FEFEFE"/>
<path d="M139.826 887.32C144.366 893.33 148.544 899.595 153.124 905.575C184.254 946.885 217.671 986.425 253.219 1024H213.255C203.647 1014.81 195.732 1003.41 188.44 992.355C167.758 960.995 148.869 923.93 139.826 887.32Z" fill="#322860"/>
<path d="M213.96 1006.21C195.421 985.63 181.289 965.555 167.933 941.305C165.814 937.46 162.622 932.95 161.544 928.785C162.327 929.05 169.389 940.76 170.634 942.65C185.076 964.61 200.493 985.39 216.907 1005.91C215.836 1006.18 215.063 1006.31 213.96 1006.21Z" fill="#FEFEFE"/>
<path d="M216.907 1005.91C222.051 1011.05 226.669 1016.77 231.681 1022.05C224.842 1018.03 219.401 1011.89 213.959 1006.21C215.063 1006.31 215.836 1006.18 216.907 1005.91Z" fill="#D2D0D0"/>
<path d="M399.828 1024C395.452 1016.43 390.541 1009.17 386.328 1001.51C369.004 970.005 356.195 935.655 352.998 899.635C364.149 918.56 375.575 937.32 387.272 955.91C401.023 977.655 416.618 999.875 425.805 1024H417.207H414.066H399.828Z" fill="#271C5B"/>
<path d="M361.139 923.52C369.314 939.66 376.92 956.03 385.693 971.865C395.57 989.695 406.58 1006.64 417.207 1024H414.066C409.244 1018.11 405.116 1011.61 401.009 1005.2C389 986.485 379.218 967.4 370.297 947.025C366.983 939.455 363.264 931.52 361.139 923.52Z" fill="#FEFEFE"/>
<path d="M616.125 703.36C621.615 707.805 628.96 712.665 632.54 718.865C635.86 724.615 637.68 731.705 639.84 737.99L652.595 776.15C675.52 843.16 695.435 911.155 712.285 979.94C715.97 994.68 720.5 1009.13 723.72 1024H722.725H718.795H670.275C662.775 989.395 653.93 954.985 645.825 920.505C642.335 905.65 639.355 890.67 636.065 875.765L622.41 814.915L612.86 770.41C610.82 760.875 607.79 750.725 607.52 740.975C607.175 728.65 612.315 714.97 616.125 703.36Z" fill="#D2D0D0"/>
<path d="M718.795 1024C712.26 998.125 704.365 972.665 697.48 946.885C682.415 890.485 668.575 833.015 641.77 780.81C641.11 779.52 640.265 778.06 640.69 776.585C641.905 776.615 642.53 776.98 643.35 777.865C646.805 781.6 649.355 788.38 651.62 792.995C667.455 825.3 677.68 859.54 687.34 894.095C694.61 920.01 701.675 945.985 708.54 972.01C713.205 989.185 719.705 1006.46 722.725 1024H718.795Z" fill="#271C5B"/>
<path d="M775.445 866.345C787.795 893.61 824.595 960.1 853.335 972.03C862.635 975.895 872.195 975.66 881.425 971.725C898.75 964.335 908.94 945.42 915.5 928.815C915.535 937.675 913.97 956.82 911.675 965.135L910.04 965.48L908.3 964.785C907.185 965.09 906.58 965.3 905.96 966.345C903.375 970.69 901.435 976.24 899.425 980.9C894.195 992.995 886.32 1010.78 874.38 1017.47C864.875 1022.8 853.745 1021.15 843.785 1018.11C836.05 1015.75 828.535 1011.94 822.245 1006.84C807.475 994.87 781.225 957.815 770.5 940.535C766.535 934.15 763.1 927.355 759.535 920.74C763.755 910.725 767.17 900.385 769.745 889.825C771.69 882.005 773.195 874.085 775.445 866.345Z" fill="#D2D0D0"/>
<path d="M645.785 730.77C656.175 740.485 670.2 766.44 675.75 779.655C683.95 799.175 689.765 819.59 695.74 839.865L713.34 900.505C724.8 941.49 737.15 982.415 746.265 1024H733.83C728 1001.04 722 978.125 715.84 955.25C712.03 941.08 707.07 926.13 705.57 911.525L705.78 911.265C707.155 915.505 708.105 919.805 708.825 924.205C708.93 917.625 708.445 886.255 705.29 882.765C703.895 882.21 703.61 882.025 702.15 882.275C700.425 883.83 700.165 886.12 700.04 888.335C699.89 891.025 699.935 893.755 699.93 896.45C683.71 840.64 665.65 785.385 645.785 730.77Z" fill="#D2D0D0"/>
<path d="M754.6 936.77C764.68 954.895 775.22 972.04 787.34 988.91C792.74 996.425 798.085 1003.92 804.64 1010.49C809.96 1015.83 815.68 1020.2 822.175 1024H754.795C752.68 1015.31 750.045 1006.76 747.885 998.08C751.535 1003.16 754.88 1007.11 759.72 1011.07C749.145 993.955 745.78 982.685 740.13 963.595C745.57 954.86 750.75 946.355 754.6 936.77Z" fill="#D2D0D0"/>
<path d="M56.2425 1024C59.7065 1008.04 62.2515 991.84 64.9385 975.73C67.841 958.32 70.9075 940.89 72.436 923.295C75.37 889.525 75.198 854.995 82.5315 821.765C88.7945 793.385 100.255 766.145 112.404 739.86C122.221 718.625 128.93 701.66 149.528 688.275C173.496 672.705 207.774 669.03 235.318 674.995C287.333 686.26 340.384 745.32 367.926 788.415C378.091 804.325 388.005 821.375 395.259 838.835C398.764 847.275 401.51 855.975 404.389 864.64C406.366 870.585 409.57 878.975 409.775 885.185C388.618 819.07 342.303 745.92 285.848 704.52C278.003 698.77 270.088 693.315 261.414 688.86C233.962 675.045 202.196 672.505 172.899 681.79C151.213 688.895 135.665 700.68 125.393 721.175C111.01 749.865 96.7635 781.525 88.754 812.66C84.7295 828.305 82.25 844.71 80.6825 860.77C78.1265 886.965 77.7555 913.37 74.499 939.5C72.35 956.08 69.556 972.57 66.123 988.935C63.566 1000.61 60.286 1012.28 58.0515 1024H56.2425Z" fill="#FEFEFE"/>
<path d="M757.815 925.74C761.775 932.73 765.625 939.835 769.87 946.65C780.495 963.705 805.295 998.875 819.89 1010.66C826.855 1016.18 834.865 1020.25 843.435 1022.62C845.17 1023.1 846.91 1023.56 848.66 1024H830.67C825.865 1021.4 820.81 1018.97 816.525 1015.56C799.905 1002.34 778.15 969.305 767.045 950.94C763.2 944.58 759.855 937.84 755.88 931.59L757.815 925.74Z" fill="#D2D0D0"/>
<path d="M658.75 1024C653.93 996.475 646.215 969.34 640.035 942.085C627.13 886.035 614.61 829.89 602.48 773.665C601.65 769.875 595.355 744.335 595.62 742.89C596.75 743.14 597.215 743.83 597.82 744.78C600.25 748.605 613.175 813.385 614.94 821.76C624.365 864.61 634.055 907.4 644.005 950.135L653.815 991.66C656.36 1002.28 659.415 1013.15 660.725 1024H658.75Z" fill="#FEFEFE"/>
<path d="M882.825 1024C894.935 1012.3 901.955 998.47 909.615 983.755C909.47 997.06 906.355 1010.74 904.85 1024H882.825Z" fill="#D2D0D0"/>
<path d="M910.04 965.48L911.675 965.135C910.315 975.75 895.89 1001.38 889.43 1010.2C885.98 1014.91 881.98 1019.38 877.34 1022.96C876.88 1023.31 876.42 1023.66 875.955 1024H870.655C872.09 1023.37 873.525 1022.73 874.92 1022.02C888.915 1014.92 896.39 995.765 902.655 982.285C905.225 976.745 908.1 971.28 910.04 965.48Z" fill="#FEFEFE"/>
<path d="M707.35 382.065C705.945 379.732 711.875 367.258 712.575 363.759C713.245 360.393 713.375 356.294 713.325 352.865C713.27 349.38 711.575 340.446 708.05 338.536C705.95 337.397 703.235 337.246 701.235 335.956C699.485 334.829 697.86 332.97 696.355 331.523C696.14 331.644 695.92 331.75 695.72 331.887C694.91 332.435 695.085 332.49 694.195 332.977C692.805 333.733 690.42 332.783 688.95 332.382C692.88 332.638 695.935 328.777 699.375 329.554C699.6 330.598 699.08 331.508 698.75 332.511L699.265 333.262L700.175 332.807C701.06 333.28 701.41 334.21 701.935 335.051L702.74 335.149L703.3 334.316C703.075 332.982 702.94 331.89 703.03 330.527C704.055 329.491 704.26 329.675 705.74 329.59C711.12 335.634 714.81 348.227 714.335 356.374C713.865 364.432 710.855 374.767 707.35 382.065Z" fill="#281D56"/>
<path d="M466.067 124.06C470.833 121.737 475.723 119.679 480.716 117.896C490.876 114.156 501.25 111.03 511.785 108.536C528.3 104.789 564.09 99.5059 579.015 106.853C584.13 109.371 588.715 113.413 593.1 117.03C609.455 130.526 623.02 146.522 635.11 163.89C639.5 170.191 643.495 176.762 647.89 183.057C656.475 195.353 666.95 207.72 671.63 222.16C670.27 221.516 668.865 220.974 667.425 220.537C665.045 219.834 662.01 220.353 659.88 221.597C658.545 222.378 657.31 222.083 655.775 222.06C655.42 215.812 651.98 203.32 649.48 197.612C649.395 197.8 649.245 197.971 649.215 198.177C648.625 202.075 651.28 208.856 651.45 213.231C651.775 221.696 649.94 230.044 650.015 238.509L650.325 239.955C654.8 238.63 663.345 234.241 667.715 236.327C669.225 237.046 669.95 238.475 670.275 240.034C670.665 241.927 670.68 245.834 669.66 247.49L667.775 247.433L667.085 245.997L666.675 248.982L666.54 249.616C661.71 249.294 652.72 247.175 648.655 250.058L648.435 251.017C649.435 251.745 650.36 251.935 651.62 251.826C652.67 251.735 653.43 251.385 654.55 251.521C656.4 251.747 658.495 252.829 660.27 253.44C667.055 255.783 672.49 258.078 678.545 262.091C687.325 267.907 698.115 277.287 700.405 288.128C701.075 291.293 700.845 295.23 698.895 297.947C696.71 300.993 692.085 303.511 688.575 304.615C686.885 304.742 684.97 304.74 683.42 305.467L684.76 305.744C682.195 306.843 676.975 306.816 674.4 305.823C673.595 305.513 673.485 305.288 672.93 304.686C673.325 300.894 679.41 299.877 675.655 295.08C672.405 290.935 664.165 287.902 658.955 287.566C649.95 286.986 635.28 299.663 628.67 293.073C625.975 290.388 625.785 285.161 625.905 281.553C626.02 277.92 627.43 274.938 630.065 272.428C633.37 269.287 637.75 268.382 642.185 268.68C649.81 269.191 656.38 272.939 663.71 274.433C655.975 268.766 645.89 263.128 635.935 264.723C629.335 265.781 625.3 268.437 621.495 273.871C613.87 284.768 608.5 301.941 603.005 314.398C598.56 324.473 592.32 334.545 589.705 345.269C588.07 351.966 587.965 359.72 589.205 366.493C589.525 368.266 589.955 370.024 590.38 371.775C591.83 364.955 592.655 357.71 594.63 351.045C597.77 340.435 602.845 330.553 606.895 320.289C611.02 309.838 614.305 299.029 618.17 288.474C620.295 294.722 623.595 301.554 629.93 304.488C638.725 308.56 647.975 304.153 656.97 305.099C662.085 305.637 667.04 308.889 671.945 310.413C676.78 311.916 682.325 311.608 686.96 313.669C690.285 315.149 692.91 317.831 696.115 319.559C695.58 322.558 695.825 326.846 693.275 328.637L692.21 330.054C691.185 330.503 690.3 330.586 689.22 330.151C687.75 329.562 687.23 328.545 686.49 327.257L686.945 326.136L686.445 325.92C687.235 324.379 688.08 322.534 687.78 320.774C686.28 321.048 685.645 322.422 684.365 323.24C684.05 322.119 684.225 321.166 684.29 320.03C684.38 318.289 684.435 316.764 683.2 315.391C682.65 315.863 682.27 316.123 681.61 316.469C680.65 315.612 679.905 314.924 678.66 314.499C676.59 315.349 675.56 317.575 674.475 319.48L673.295 320.25C672.91 319.402 672.935 319.834 673.175 319.018C673.565 317.724 673.975 316.762 673.545 315.42C672.405 314.788 672.39 314.852 671.095 315.092C669.465 316.578 669.29 322.335 668.055 322.416C667.385 321.153 667.12 320.022 666.845 318.642C666.235 318.632 665.855 318.442 665.405 318.938C664.56 319.867 664.31 321.433 663.975 322.623L663.29 322.542C662.435 321.359 662.355 320.68 662.7 319.225C663.135 317.381 664.075 315.477 664.84 313.738C659.535 317.56 660.7 319.819 656.985 323.617C656.49 325.828 655.9 328.004 655.865 330.28L656.255 330.89C657.81 329.179 659.46 326.144 662.115 326.312C662.92 326.364 663.81 327.018 664.47 327.42C666.705 327.4 671.215 324.835 672.805 326.018C675.73 328.194 680.68 327.051 682.255 329.996L681.955 331.15C681.045 331.39 680.3 331.452 679.375 331.474C661.205 331.906 638.825 349.147 627.075 361.808C619 370.508 607.36 383.12 607.665 395.781C607.995 409.344 622.24 426.298 631.705 434.949C644.555 446.694 669.675 465.808 687.545 464.883C691.15 464.697 694.68 463.855 698.15 462.906C698.68 464.579 699.19 466.221 699.56 467.939C698.165 473.458 695.775 479.012 690.635 482.021C685.255 485.169 677.925 484.783 672.095 483.082C657.22 478.743 646.065 467.251 635.14 457.042C637.1 461.449 639.48 464.935 642.655 468.55L641.32 470.33L639.73 467.839L639.09 467.721C639.285 471.529 643.775 476.741 646.55 479.148C651.23 483.208 658.445 483.593 663.845 486.513L663.545 486.883C658.825 486.688 654.02 484.846 649.26 484.275C653.935 489.969 656.93 491.62 664.42 492.387C665.395 492.487 666.365 492.546 667.35 492.583L667.21 493.03C659.045 494.61 652.475 492.995 644.77 490.415C651.17 496.588 658.87 499.185 667.53 500.33C665.455 501.355 662.12 500.99 659.82 500.91C658.975 500.885 659.3 500.815 658.63 501.14C660.425 501.535 666.555 501.76 667.535 502.695C666.81 503.31 665.08 504.32 664.695 505.09C665.32 505.82 665.08 505.835 665.95 505.925C670.83 506.445 674.93 500.595 679.41 499.598C677.95 502.025 672.89 504.08 672.215 506.18C674.29 506.9 676.88 506.53 679.065 506.455C678.765 511.09 678.325 515.735 677.19 520.25C674.84 522.47 673.185 524.665 671.64 527.51C669.58 527.285 667.295 526.63 665.38 527.435C664.87 528.29 664.425 529.06 664.04 529.98C661.91 529.585 660.07 527.885 657.955 528.025L656.695 529.47C655.545 529.155 654.985 528.41 654.175 527.58L653.245 527.66L652.46 528.755C650.29 528.31 645.72 525.41 644.065 525.85L645.81 528.37C642.96 528.61 636.105 523.18 633.135 521.785C634.155 523.765 635.265 525.7 635.91 527.84C629.38 521.81 628.245 518.9 624.49 511.18C624.8 514.92 625.21 518.675 625.38 522.42C623.82 518.635 622.85 515.49 622.7 511.335L622.245 514.065C621.3 513.885 621.06 513.805 620.29 513.33C619.485 513.17 618.44 511.46 617.895 510.8C614.32 506.49 612.505 500.425 609.245 495.715C609.795 500.07 610.35 504.5 610.275 508.895C609.375 505.08 608.49 501.64 606.785 498.093C607.485 495.313 608.25 492.367 606.91 489.637L606.105 489.612C604.745 491.046 604.29 492.83 603.67 494.658C602.805 493.191 602.055 491.665 601.285 490.145C602.325 488.363 604.305 485.55 604.315 483.451C604.32 482.295 604.2 481.548 603.435 480.675C601.895 481.573 601.605 484.28 600.005 485.526C595.425 483.033 600.995 478.95 599.745 475.38L598.655 474.946C597.725 475.519 597.59 475.763 597.075 476.691L595.905 478.811L595.295 478.926L594.8 478.14C594.65 476.135 595.055 474.465 596.17 472.772C596.275 472.614 596.385 472.459 596.49 472.3C599.03 468.416 595.635 468 595.215 464.664C595.11 463.811 596.87 461.766 597.415 460.976L597.14 459.657C596.475 459.082 595.88 458.503 595.29 457.853C595.055 456.326 594.985 455.216 595.29 453.696C596.305 454.162 596.97 457.229 597.8 458.28C597.925 454.9 596.485 450.862 595.245 447.725C594.705 448.465 594.83 450.333 594.75 451.289C594.135 451.739 593.55 452.197 592.965 452.693L592.325 453.242C589.755 449.354 596.84 445.546 596.585 441.776L595.34 442.703L595.025 442.255C595.185 441.506 595.33 440.759 595.48 440.009C596.07 437.074 594.795 434.004 595.45 431.309C595.875 429.536 597.13 427.951 597.36 426.116C597.485 425.121 597.485 424.93 596.84 424.154L594.79 424.92C594.39 423.521 595.1 422.734 595.685 421.446C594.81 420.212 595.125 418.578 595.18 417.134C595.185 413.982 596.7 411.887 597.615 409.026C597.99 407.856 598.245 407.046 597.675 405.918L596.275 406.337C596.76 403.139 599.845 401.074 599.87 397.461L598.82 396.718C598.395 395.156 600.195 393.077 601.015 391.641L600.73 391.141L598.92 392.066C598.73 389.634 604.82 386.329 605.025 382.65C603.46 382.315 602.6 384.219 601 384.338C602.15 381.305 605.48 379.521 607.125 376.75C607.66 375.849 607.575 376.295 607.3 375.262C606.56 375.525 605.91 375.799 605.21 376.171C604.985 376.29 604.765 376.416 604.545 376.538C604.44 374.458 610.46 369.361 610.97 366.36L609.21 366.221C610.605 361.915 616.125 359.721 618.475 355.949C619.105 354.93 619.805 353.952 620.48 352.959C619.115 352.762 618.455 352.49 617.33 351.688C616.305 352.111 615.49 352.164 615.125 353.331C614.905 354.04 614.95 355.058 614.91 355.809C613.84 357.22 612.925 357.389 611.315 358.065L610.485 357.868L610.45 357.174C610.36 355.64 610.39 354.41 609.535 353.075L607.6 352.356C603.555 356.104 601.585 361.764 598.645 366.346C600.055 361.709 601.5 357.093 602.325 352.309C593.34 368.498 593.055 379.344 589.9 396.375C587.87 407.326 585.615 417.77 584.535 428.903C583.855 435.941 584.52 443.71 583.11 450.552C582.87 451.715 582.68 453.279 581.695 453.996L581.65 453.611C581.625 453.397 581.595 453.184 581.57 452.97C581.545 452.75 581.53 452.528 581.51 452.308C581.155 448.893 579.53 446.433 577.83 443.555C578.71 447.556 582.29 456.97 580.865 460.597L580.305 460.652C580.1 459.011 580 457.404 579.94 455.752L579.525 455.776C578.97 457.653 579.27 459.988 578.31 461.618C577.67 459.836 577.985 457.238 577.005 455.86C574.97 457.218 575.22 460.016 573.195 461.334C571.715 461.029 571.235 460.165 570.38 458.907C570.105 458.499 569.875 458.061 569.625 457.637C568.985 456.561 568.43 456.028 567.42 455.319C566.86 454.928 567.11 455.142 566.595 454.521L565.955 454.46C566.23 455.123 566.415 455.733 566.475 456.461C566.59 457.82 566.135 459.153 565.3 460.196C564.58 460.554 564.27 460.874 563.435 460.756C561.885 460.539 560.975 459.728 560.13 458.499C559.015 456.874 557.71 455.443 556.41 453.967C556.225 454.173 556.04 454.375 555.86 454.584C554.155 456.588 553.735 460.032 551.27 461.129C550.5 460.641 550.015 460.288 549.49 459.535L547.355 458.539C546.455 459.163 545.675 459.804 544.545 459.551C541.715 458.917 539.925 455.462 538.355 453.241C537.82 454.791 537.315 456.934 536.35 458.26C535.86 458.938 535.22 459.31 534.42 459.483L533.765 458.639C533.915 457.112 534.215 457.106 535.36 456.039L533.44 454.625C532.02 456.37 530.185 458.654 528.03 459.493C526.725 460.001 526.16 459.792 524.945 459.234C523.36 457.069 523.08 455.658 523.225 452.979L523.395 449.655C522.955 446.309 521.93 442.898 521.7 439.598L520.17 440.594L521.415 440.776C521.115 443.653 521.6 449.445 520.08 451.607C519.21 453.182 518.26 455.343 516.695 456.335C515.55 457.061 513.905 457.075 512.635 456.646C507.895 455.047 510.415 447.19 509.975 443.308C509.755 441.337 508.89 439.667 507.98 437.932L507.425 437.791C505.89 440.825 506.75 444.519 507.265 447.718C506.875 448.856 506.46 449.976 505.935 451.061C505.105 452.778 503.89 454.458 501.94 454.971C498.664 455.833 494.915 453.295 492.133 451.845L494.805 447.545C494.412 445.334 494.145 440.92 492.525 439.428L491.073 439.795C488.983 442.646 492.386 445.203 490.367 449.32C489.741 449.746 489.473 450.103 488.671 450.095C483.424 450.045 479.553 441.919 476.992 438.221C475.055 435.423 472.768 432.924 470.968 430.019C470.037 428.516 469.591 426.894 468.767 425.372C466.838 421.809 462.389 414.242 459.688 411.479L459.32 411.856C461.313 423.94 474.165 439.315 480.466 450.36L480.269 450.809C478.605 450.084 478.145 448.496 477.277 446.946C474.737 442.407 469.134 439.538 464.613 437.243C466.456 442.005 468.739 446.623 470.697 451.345C475.523 463.297 480.474 475.197 485.549 487.044C472.378 475.416 457.606 465.626 443.076 455.799C437.189 451.817 431.202 447.123 424.772 444.086C432.215 458.656 456.37 481.29 468.178 494.825C485.492 514.31 501.815 534.655 517.09 555.78C522.925 563.775 528.875 571.69 534.22 580.025C519.29 567.185 503.82 555.265 488.353 543.105C441.834 506.535 393.235 472.035 340.886 444.227C329.189 438.014 317.558 431.487 305.297 426.439C314.328 401.507 328.378 376.847 343.045 354.835C355.486 371.349 365.004 382.925 386.406 387.03C390.134 393.7 394.948 404.657 401.642 408.785C403.009 409.628 404.49 409.968 406.066 409.511C410.515 408.224 413.783 401.952 415.707 398.041C421.416 386.438 424.701 374.755 420.426 362.222C416.313 370.262 412.403 378.871 403.068 381.88C394.021 384.795 383.634 381.513 375.509 377.369C371.328 375.236 367.252 372.722 363.734 369.596C350.973 358.255 334.691 333.463 329.5 317.235C326.591 308.138 327.452 299.247 331.901 290.825C336.521 282.08 344.029 273.792 353.805 270.99C366.863 267.247 407.922 276.728 420.771 281.813C426.315 284.007 433.121 287.423 437.224 291.857C441.326 296.29 443.554 310.537 447.203 312.509L447.776 312.11L447.731 310.01C447.271 307.631 446.701 305.273 446.159 302.912C444.938 299.434 443.913 297.178 444.787 293.483L444.907 292.485C441.354 287.718 439.524 272.897 438.496 266.81C437.008 258.004 434.599 247.666 435.94 238.761C440.14 210.853 486.388 180.94 487.394 170.53C488.63 157.752 473.783 133.926 466.067 124.06Z" fill="#D2D0D0"/>
<path d="M520.96 418.243C521.435 416.361 521.94 414.555 522.615 412.734C522.715 414.719 522.505 416.259 523.545 418.008L524.395 418.24L526 417.173L526.94 417.384C527.7 419.003 527.745 420.622 528.325 422.283L529.77 422.484C531.045 423.011 531.61 423.972 532.39 425.046C533.475 426.231 534.75 427.498 535.545 428.898C536.705 430.948 538.01 437.338 539.81 438.392C540.26 438.656 541.385 438.756 541.935 438.883L544.265 438.733C544.295 438.922 544.33 439.111 544.36 439.299C545.05 443.555 543.24 448.59 546.615 452.001C547.995 454.05 547.6 456.201 547.355 458.539C546.455 459.163 545.675 459.804 544.545 459.551C541.715 458.917 539.925 455.462 538.355 453.241C537.82 454.791 537.315 456.934 536.35 458.26C535.86 458.938 535.22 459.311 534.42 459.483L533.765 458.639C533.915 457.112 534.215 457.106 535.36 456.039L533.44 454.625C532.02 456.37 530.185 458.654 528.03 459.493C526.725 460.001 526.16 459.792 524.945 459.234C523.36 457.069 523.08 455.659 523.225 452.979L523.395 449.655C523.745 445.384 523.605 439.866 521.675 435.973C520.525 435.485 519.46 434.993 518.43 434.273L517.595 433.682L518.55 432.895L518.58 431.973C518.725 427.547 516.8 421.932 517.96 417.805L518.865 417.38L520.96 418.243Z" fill="#FEFEFE"/>
<path d="M529.77 422.484C531.045 423.011 531.61 423.972 532.39 425.046C533.475 426.231 534.75 427.498 535.545 428.898C536.705 430.948 538.01 437.338 539.81 438.392C540.26 438.656 541.385 438.756 541.935 438.883L544.265 438.733C544.295 438.922 544.33 439.111 544.36 439.299C545.05 443.555 543.24 448.59 546.615 452.001C547.995 454.05 547.6 456.201 547.355 458.539C546.455 459.163 545.675 459.804 544.545 459.551C541.715 458.917 539.925 455.462 538.355 453.241C537.82 454.791 537.315 456.934 536.35 458.26C535.86 458.938 535.22 459.311 534.42 459.483L533.765 458.639C533.915 457.112 534.215 457.106 535.36 456.039C537.125 452.269 537.44 448.572 537.735 444.491C536.43 441.258 534.27 439.236 532.565 436.335C532.095 431.812 531.955 426.569 529.77 422.484Z" fill="#FEFEFE"/>
<path d="M529.02 438.541L530.04 437.78L528.505 437.032L528.25 435.995L528.71 435.254C530.055 435.172 530.92 435.775 532.165 436.203C532.295 436.249 532.43 436.291 532.565 436.335C534.27 439.236 536.43 441.258 537.735 444.491C537.44 448.572 537.125 452.269 535.36 456.04L533.44 454.625C533.8 449.582 530.43 444.858 531.255 441.492C531.495 440.507 531.69 440.123 531.305 439.119L529.02 438.541Z" fill="#271C5B"/>
<path d="M529.02 438.54C527.98 438.164 527.265 437.615 526.63 436.687C524.9 434.152 526.16 429.279 526.65 426.43C526.96 424.639 527.015 423.613 528.325 422.282L529.77 422.484C531.955 426.568 532.095 431.812 532.565 436.335C532.43 436.291 532.295 436.249 532.165 436.203C530.92 435.775 530.055 435.172 528.71 435.253L528.25 435.995L528.505 437.032L530.04 437.779L529.02 438.54Z" fill="#281D56"/>
<path d="M518.55 432.895L518.58 431.973C518.725 427.547 516.8 421.932 517.96 417.805L518.865 417.38L520.96 418.243C522.595 422.099 524.84 426.308 523.24 430.52L522.72 430.424L521.805 428.368C521.03 428.953 521.3 428.57 521.025 429.365C520.425 431.117 520.06 431.824 518.55 432.895Z" fill="#271C5B"/>
<path d="M522.645 410.888C522.235 409.628 521.75 408.303 521.505 407.001C521.005 404.351 520.29 395.094 521.835 392.99L522.73 393.298C525.21 396.435 525.77 400.094 526.65 403.901C527.63 409.028 527.78 414.211 529.82 419.074C530.6 420.928 531.89 422.48 532.745 424.288L533.14 424.619C534.2 425.486 534.945 426.058 536.3 426.419L537.5 426.072C539.96 421.357 532.38 411.384 533.995 406.804C537.065 408.42 539.755 413.666 540.71 416.816C542.01 421.102 542.285 434.175 541.935 438.883C541.385 438.756 540.26 438.655 539.81 438.391C538.01 437.337 536.705 430.948 535.545 428.898C534.75 427.498 533.475 426.231 532.39 425.045C531.61 423.972 531.045 423.01 529.77 422.484L528.325 422.282C527.745 420.621 527.7 419.002 526.94 417.384L526 417.173L524.395 418.239L523.545 418.008C522.505 416.259 522.715 414.718 522.615 412.734L522.645 410.888Z" fill="#271C5B"/>
<path d="M637.37 330.965C637.565 330.903 637.765 330.853 637.96 330.777C639.425 330.201 642.145 328.663 642.96 327.29C641.98 327.215 641.54 327.426 640.635 327.756C641.11 326.307 642.33 325.065 643.255 323.874C644.635 323.666 645.605 323.779 646.96 323.995L646.99 326.616L647.385 326.819C648.965 325.358 650.465 324.03 651.66 322.216L651.62 321.67L649.98 321.659C650.76 320.189 651.755 318.892 653.35 318.272C654.125 317.972 654.505 318.213 655.275 318.392C656.305 319.365 657.075 320.015 657.475 321.435C657.215 322.616 656.74 323.097 655.975 323.979C655.215 324.849 654.505 325.471 654.49 326.701C654.48 327.674 654.695 328.729 654.845 329.692L654.335 330.659C651.825 329.969 649.365 329.093 646.985 328.037C645.52 329.104 644.485 330.527 643.05 331.573C641.645 332.596 637.965 333.533 637.05 334.811C636.83 335.115 636.895 335.543 636.82 335.909C636.97 337.46 636.965 338.344 636.5 339.829C635.665 340.6 635.78 340.698 634.585 340.868L633.995 340.956C633.455 341.033 632.91 341.056 632.375 341.116C629.845 341.396 627.035 344.929 625.31 346.693C622.69 347.041 619.155 349.835 617.33 351.688C616.305 352.111 615.49 352.164 615.125 353.331C614.905 354.04 614.95 355.058 614.91 355.809C613.84 357.22 612.925 357.389 611.315 358.065L610.485 357.868L610.45 357.174C610.36 355.64 610.39 354.41 609.535 353.075L607.6 352.356C608.6 351.34 609.315 350.581 610.76 350.254C612.485 349.865 614.305 349.413 615.925 348.696C617.69 347.914 619.04 346.995 619.77 345.212C620.635 344.564 621.57 344.103 622.525 343.601L624.32 343.656C625.43 342.826 624.865 340.844 625.715 339.364C627.64 339.595 629.345 339.302 631.25 339.004C631.985 338.143 632.74 337.275 633.38 336.341C634.33 334.966 634.065 333.545 633.83 331.999L634.635 329.92C635.51 330.274 636.455 330.772 637.37 330.965Z" fill="#271C5B"/>
<path d="M444.907 292.485L444.526 287.82L444.98 287.484L445.596 287.983C445.761 288.838 445.913 289.726 446.181 290.554C446.524 291.609 446.829 292.74 447.847 293.208C448.104 292.504 448.266 292.016 448.263 291.252C448.262 291.065 448.245 290.879 448.236 290.693L449.476 290.841C450.382 291.967 451.041 293.056 451.705 294.337L451.46 294.987C453.771 299.414 455.236 300.696 454.074 305.738C453.47 308.361 455.873 313.251 457.309 315.494C456.817 316.427 457.039 316.338 455.964 316.811C454.66 316.42 453.723 315.667 453.01 314.501C452.489 313.649 452.114 312.666 451.736 311.743C451.666 311.708 451.598 311.665 451.524 311.637C450.189 311.132 449.001 310.674 447.731 310.011C447.271 307.632 446.7 305.274 446.158 302.912C444.937 299.435 443.913 297.178 444.787 293.484L444.907 292.485Z" fill="#271C5B"/>
<path d="M444.787 293.484C446.981 296.131 450.428 299.295 450.659 302.894C450.327 303.379 450.009 303.907 449.63 304.355C450.187 306.863 450.97 309.294 451.736 311.743C451.666 311.708 451.598 311.665 451.524 311.637C450.189 311.132 449.001 310.674 447.731 310.011C447.271 307.632 446.7 305.274 446.158 302.912C444.937 299.435 443.913 297.178 444.787 293.484Z" fill="#FEFEFE"/>
<path d="M547.575 424.449C548.005 422.854 548.22 421.061 549.635 420.11L550.585 420.686C552.935 424.941 553.69 430.665 554.435 435.444C554.555 436.676 554.325 436.711 555.275 437.598C557.495 439.665 559.695 442.554 559.77 445.722C559.82 448.099 558.12 451.979 556.54 453.735L555.22 453.121C553.665 450.155 556.44 446.971 555.62 443.785C554.865 440.855 551.955 440.865 550.975 438.739C549.72 436.026 548.755 428.143 547.575 424.449Z" fill="#271C5B"/>
<path d="M561.865 438.732C561.44 434.077 558.305 421.19 559.63 417.552L560.345 417.588C564.855 423.139 567.725 445.793 566.955 452.595C566.88 453.263 566.75 453.869 566.595 454.522L565.955 454.46C564.26 450.966 562.91 447.736 562.715 443.816C562.635 442.235 562.4 440.854 562.015 439.319L561.865 438.732Z" fill="#271C5B"/>
<path d="M554.435 435.445L554.7 434.029C555.775 437.747 557.4 437.13 559.21 439.845C560.26 441.428 559.385 443.505 560.785 444.946L561.61 444.941C561.92 442.851 561.335 440.808 561.865 438.732L562.015 439.319C562.4 440.854 562.635 442.235 562.715 443.816C562.91 447.736 564.26 450.967 565.955 454.46C566.23 455.124 566.415 455.733 566.475 456.461C566.59 457.821 566.135 459.154 565.3 460.197C564.58 460.554 564.27 460.875 563.435 460.757C561.885 460.539 560.975 459.729 560.13 458.5C559.015 456.875 557.71 455.444 556.41 453.968L556.54 453.735C558.12 451.98 559.82 448.1 559.77 445.722C559.695 442.555 557.495 439.665 555.275 437.599C554.325 436.712 554.555 436.677 554.435 435.445Z" fill="#FEFEFE"/>
<path d="M621.34 339.983C623.535 337.46 624.45 333.811 627.61 332.153C629.57 331.124 631.82 331.314 633.83 331.999C634.065 333.545 634.33 334.966 633.38 336.341C632.74 337.275 631.985 338.143 631.25 339.004C629.345 339.302 627.64 339.595 625.715 339.364C624.865 340.844 625.43 342.826 624.32 343.656L622.525 343.601C622.355 342.071 622.205 341.315 621.34 339.983Z" fill="#281D56"/>
<path d="M517.595 433.682L518.43 434.273C519.46 434.993 520.525 435.485 521.675 435.973C523.605 439.866 523.745 445.384 523.395 449.655C522.955 446.309 521.93 442.898 521.7 439.598L520.17 440.594L521.415 440.776C521.115 443.653 521.6 449.445 520.08 451.608C520.135 449.142 520.285 446.587 520.175 444.124C520.11 442.786 520.165 441.765 519.115 440.854L519.45 441.508C518.87 442.43 518.26 443.229 517.595 444.09L516.945 443.548C516.18 441.637 515.52 438.305 515.705 436.262C515.825 434.957 516.635 434.439 517.595 433.682Z" fill="#271C5B"/>
<path d="M666.675 248.983C662.435 246.3 657.455 245.482 653.34 243.199L653.58 242.538C656.17 241.34 659.23 241.337 661.935 242.201C664.25 242.942 665.995 243.764 667.085 245.997L666.675 248.983Z" fill="#281D56"/>
<path d="M544.265 438.733C544.995 437.342 544.61 436.73 544.315 435.219L544.915 435.167C544.93 435.42 544.91 435.678 544.965 435.926C546.045 440.785 549.28 444.608 550.005 451.035L549.71 451.643C549.32 450.657 548.945 449.672 548.595 448.669L548.275 448.484L547.57 451.069L546.615 452.001C543.24 448.59 545.05 443.555 544.36 439.299C544.33 439.111 544.295 438.922 544.265 438.733Z" fill="#271C5B"/>
<path d="M633.63 227.808C640.755 230.22 645.47 232.273 650.015 238.509L650.325 239.955C650.16 239.944 649.995 239.954 649.835 239.923C646.865 239.339 635.77 230.417 633.63 227.808Z" fill="#271C5B"/>
<path d="M686.945 326.137C687.81 325.042 688.905 322.811 690.21 322.57L691.7 323.874C692.505 323.213 693.055 322.441 693.685 321.62L694.055 321.989C693.86 324.213 693.6 326.43 693.275 328.638L692.21 330.055C691.185 330.503 690.3 330.586 689.22 330.151C687.75 329.562 687.23 328.545 686.49 327.258L686.945 326.137Z" fill="#271C5B"/>
<path d="M449.476 290.841C448.813 287.45 448.184 284.101 447.826 280.663C448.709 280.76 448.33 280.582 449.042 281.453C451.523 284.489 453.145 289.844 453.364 293.716C452.615 294.494 452.705 294.295 451.705 294.336C451.041 293.055 450.382 291.966 449.476 290.841Z" fill="#281D56"/>
<path d="M617.33 351.688C619.155 349.835 622.69 347.041 625.31 346.693C626.03 348.118 626.43 348.514 626.22 350.132C624.865 351.761 622.425 352.275 620.48 352.959C619.115 352.762 618.455 352.49 617.33 351.688Z" fill="#281D56"/>
<path d="M683.42 305.467L681.97 305.407C682.315 305.168 682.66 304.921 683.03 304.711C686.8 302.556 689.325 299.624 692.91 297.327L692.76 297.457L693.97 297.74L694.055 297.146C693.145 300.174 690.79 302.475 688.575 304.615C686.885 304.742 684.97 304.741 683.42 305.467Z" fill="#281D56"/>
<path d="M621.34 339.984C622.205 341.315 622.355 342.071 622.525 343.601C621.57 344.103 620.635 344.565 619.77 345.213C617.585 346.612 615.215 348.527 612.61 348.92L612.3 348.363C614.86 345.369 618.36 343.674 620.905 340.538C621.05 340.355 621.195 340.168 621.34 339.984Z" fill="#281D56"/>
<path d="M634.635 329.92C636.195 326.968 637.015 325.189 640.265 323.806L640.985 324.034C640.29 326.616 638.27 328.457 637.37 330.966C636.455 330.773 635.51 330.275 634.635 329.92Z" fill="#281D56"/>
<path d="M595.18 417.134C596.975 414.848 598.675 413.016 600.975 411.198C599.545 414.812 598.01 418.304 595.685 421.446C594.81 420.212 595.125 418.578 595.18 417.134Z" fill="#281D56"/>
<path d="M547.57 451.069C550.055 454.07 549.74 455.849 549.49 459.535L547.355 458.539C547.6 456.201 547.995 454.05 546.615 452.001L547.57 451.069Z" fill="#281D56"/>
<path d="M620.29 513.33C620.31 512 620.21 510.89 620.975 509.735C621.84 509.135 621.365 509.245 622.405 509.4L622.7 511.335L622.245 514.065C621.3 513.885 621.06 513.805 620.29 513.33Z" fill="#281D56"/>
<path d="M547.285 206.524C556.665 202.424 564.03 192.691 574.25 189.739L574.57 190.1C573.765 190.9 573.405 191.232 572.98 192.31C573.59 192.655 574.2 192.991 574.83 193.294C577.695 194.669 596.345 198.503 598.81 197.607C599.495 196.607 600.16 195.413 601.345 194.971C603.135 194.302 604.93 194.684 606.57 195.519C607.14 195.811 607.845 196.283 608.465 196.45C609.61 196.758 610.385 196.44 611.39 195.961C612.225 195.564 612.83 195.3 613.765 195.166C616.69 196.226 618.67 200.003 620.235 202.566C622.42 206.151 623.08 209.493 622.04 213.609C621.86 214.33 621.855 213.894 622.18 214.779C626.065 212.462 632.375 204.889 634.585 200.922C634.655 198.712 633.915 195.724 634.91 193.756L635.79 193.821C636.2 194.335 636.235 194.33 636.57 195.017C638.425 198.777 638.055 204.908 636.4 208.588C633.145 215.838 626.41 220.982 619.175 223.81C615.795 229.428 613.22 234.838 608.845 239.815L607.975 240.521C607.475 241.819 606.985 242.458 607.275 243.862L608.39 244.581C613.595 244.807 619.78 239.996 624.795 238.331L625.6 238.067C622.28 240.713 618.685 243.012 615.44 245.762C610.6 249.87 606.175 254.404 600.925 258.025C597.33 260.505 593.455 262.514 589.025 262.925C581.615 263.613 573.42 260.443 566.13 259.147C561.475 258.32 556.765 257.858 552.105 257.012C557.275 256.159 562.515 255.492 567.765 255.67C575.805 255.944 583.57 257.873 591.54 255.736C597.335 254.181 602.7 251.099 608.07 248.49C599.29 248.548 590.505 247.886 581.705 247.937C573.595 247.984 565.44 248.742 557.345 248.577C547.23 248.37 537.65 246.775 527.475 248.007C540.845 239.091 566.045 232.589 582.035 229.982C586.835 229.198 594.38 228.2 598.945 230.184C601.06 231.101 603.115 232.839 604.985 234.189C603.145 230.982 601.55 227.953 598.57 225.638C585.475 215.456 560.365 230.936 545.735 232.712C545.525 232.737 545.32 232.757 545.115 232.779C557.31 226.142 576.2 217.25 590.24 218.769C595.43 219.331 600.365 221.145 603.72 225.304C604.35 226.08 604.795 226.697 605.63 227.264C606.36 226.112 606.795 225.221 606.895 223.838C607.26 218.773 604.495 212.119 601.34 208.34C599.325 205.922 595.315 201.985 592.09 201.704C593.27 203.197 595.08 204.493 595.355 206.441L594.73 207.265C589.625 208.915 580.525 205.641 574.8 205.212C565.955 204.548 556.05 205.364 547.285 206.524Z" fill="#322860"/>
<path d="M549.37 245.749C550.515 245.008 551.675 244.32 552.895 243.703C561.53 239.333 583.235 232.855 592.605 234.288C596.26 234.847 599.395 236.719 602.8 238.017C604.74 238.758 606.855 239.173 608.845 239.815L607.975 240.521C588.915 235.951 568.39 243.853 549.37 245.749Z" fill="#FEFEFE"/>
<path d="M357.493 276.656C359.296 276.494 361.19 276.547 362.998 276.673C372.41 277.331 382.693 282.777 388.78 289.961C392.145 293.934 392.719 298.368 392.146 303.417C391.441 309.625 388.629 317.818 383.692 321.805C380.234 322.365 380.707 318.059 378.101 316.891C375.328 317.877 371.735 324.278 370.503 326.99C369.064 330.158 368.436 333.4 369.833 336.71C371.216 339.983 373.952 342.249 377.204 343.55C380.233 344.761 382.865 343.994 385.756 342.816C393.615 339.614 401.883 344.547 409.881 345.377C405.374 340.54 403.068 335.076 400.51 329.092L390.416 331.73C389.869 329.977 388.897 327.312 389.222 325.501C390.063 320.813 396.535 318.835 399.762 315.965C406.676 309.816 400.201 304.073 400.383 299.969L401.331 299.785C402.075 300.13 402.704 300.494 403.315 301.049C407.934 305.242 406.287 310.754 406.868 316.28C407.47 322.006 409.731 330.595 413.138 335.257C414.517 337.144 416.569 338.628 418.383 340.082C427.212 325.396 415.673 324.037 415.887 316.731L416.765 316.348C417.242 316.446 417.471 316.462 417.936 316.73C421.341 318.698 424.342 324.54 425.415 328.057C425.941 331.385 425.881 334.654 425.136 337.946C424.271 341.763 422.202 344.98 418.777 346.96C410.523 351.733 399.26 346.817 390.846 344.642L384.936 346.783C379.732 348.666 375.277 349.26 370.143 346.709C366.027 344.664 363.12 341.05 361.698 336.709C359.747 330.753 361.112 324.576 363.926 319.148C368.797 309.754 376.929 305.126 386.722 302.081C384.923 297.17 382.257 294.261 377.572 291.833C370.088 287.956 359.51 286.179 351.411 288.858C345.704 290.775 340.974 294.85 338.233 300.21C332.332 311.98 342.493 323.896 346.203 334.798L346.457 335.558C340.426 328.805 334.729 317.662 333.145 308.721C331.867 301.51 334.281 294.19 338.475 288.333C343.117 281.851 349.677 277.951 357.493 276.656Z" fill="#322860"/>
<path d="M493.632 400.474C493.453 395.668 490.546 393.465 489.121 389.277L489.921 389.094C492.347 390.471 494.593 392.657 495.813 395.169L496.28 395.042L498.108 395.366C498.516 393.22 498.805 391.405 499.97 389.509C499.683 391.68 499.583 392.996 500.285 395.08L501.175 395.362L501.545 398.242L502.275 398.557C502.515 398.455 503.9 397.785 504.125 397.838L504.93 396.428C506.455 396.056 507.53 396.598 508.86 397.372C510.38 398.253 511.45 399.137 512.58 400.464L512.725 401.32L511.195 402.17C511.885 403.191 512.59 404.162 513.36 405.128C513.425 406.289 513.54 406.397 513 407.497C513.94 411.637 515.225 415.354 513.465 419.602L512.58 420.118C511.325 419.388 511.085 418.709 510.67 417.345C509.45 416.682 508.61 415.629 507.68 414.621L506.2 415.335C506.545 419.298 507.25 422.954 508.55 426.722L503.665 430.526C503.65 434.212 504.43 440.604 503 443.858C501.65 443.087 500.985 439.861 500.565 438.358C499.684 438.613 499.52 439.017 498.918 439.685C498.283 438.807 498.427 439.293 498.418 438.397C498.384 434.727 496.898 431.5 495.637 428.113C497.417 429.095 499.168 430.426 501.265 430.183C502.33 429.461 502.775 429.12 502.94 427.78C503.35 424.442 502.125 419.953 501.68 416.594C500.355 412.32 496.641 409.205 494.233 405.522C492.939 403.542 493.209 402.678 493.632 400.474Z" fill="#271C5B"/>
<path d="M499.97 389.51C499.683 391.68 499.583 392.997 500.285 395.08L501.175 395.362L501.545 398.243L502.275 398.558C502.515 398.455 503.9 397.785 504.125 397.838L504.93 396.429C506.455 396.057 507.53 396.598 508.86 397.372C510.38 398.253 511.45 399.137 512.58 400.464L512.725 401.321L511.195 402.17C511.885 403.191 512.59 404.162 513.36 405.128C513.425 406.289 513.54 406.398 513 407.498C513.94 411.638 515.225 415.354 513.465 419.602L512.58 420.119C511.325 419.389 511.085 418.709 510.67 417.345C509.45 416.682 508.61 415.629 507.68 414.621L506.2 415.335L505.18 413.239L504.375 413.143L503.395 414.265C502 412.243 501.145 409.896 500.18 407.645C500.18 403.427 498.492 399.539 498.108 395.367C498.516 393.22 498.805 391.406 499.97 389.51Z" fill="#FEFEFE"/>
<path d="M507.6 407.154C508.36 407.177 509.115 407.258 509.865 407.125L513 407.497C513.94 411.637 515.225 415.354 513.465 419.602L512.58 420.118C511.325 419.388 511.085 418.709 510.67 417.345C509.45 416.682 508.61 415.629 507.68 414.621C507.43 412.153 507.57 409.632 507.6 407.154Z" fill="#271C5B"/>
<path d="M504.125 397.838L504.93 396.428C506.455 396.056 507.53 396.598 508.86 397.372C510.38 398.253 511.45 399.137 512.58 400.464L512.725 401.32L511.195 402.17C511.885 403.191 512.59 404.161 513.36 405.127C513.425 406.288 513.54 406.397 513 407.497L509.865 407.125C509.115 407.258 508.36 407.177 507.6 407.154C507.155 406.114 506.665 405.113 506.645 403.962C506.6 400.692 506.325 400.279 504.125 397.838Z" fill="#281D56"/>
<path d="M496.28 395.042L498.108 395.366C498.492 399.538 500.18 403.427 500.18 407.645C499.497 407.393 498.853 407.082 498.221 406.716C495.7 405.254 494.58 403.271 493.857 400.527C494.031 398.15 494.397 397.037 495.813 395.169L496.28 395.042Z" fill="#281D56"/>
<path d="M350.413 294.674C354.654 298.465 351.558 332.172 353.205 339.374C353.634 341.251 354.763 343.122 355.981 344.596C357.62 346.58 367.012 355.795 369.121 356.317C374.643 357.683 380.665 354.461 386.444 355.508C390.45 356.233 394.626 358.746 398.471 360.175C400.943 361.094 403.894 360.976 406.109 362.315L406.072 363.016L404.448 363.942C401.989 364.532 399.779 364.935 397.225 364.801C393.066 364.582 389.114 363.126 385.073 362.24C380.734 361.29 376.269 360.747 371.987 359.566C364.123 357.398 353.37 349.881 349.528 342.672C348.118 340 347.288 337.06 347.091 334.045C346.72 328.517 347.857 322.731 348.26 317.208C348.808 309.715 348.212 301.936 350.413 294.674Z" fill="#271C5B"/>
<path d="M450.846 339.962C451.144 340.092 451.429 340.256 451.738 340.353C451.914 340.408 452.665 340.423 452.833 340.434C453.93 340.501 454.411 340.721 455.283 341.426C455.525 341.919 455.852 342.459 456.011 342.983L457.696 342.613C459.521 344.521 460.711 346.076 461.526 348.601C462.258 352.031 462.88 355.415 464.336 358.626L462.783 360.022C462.274 358.523 461.821 356.67 460.966 355.337C460.412 354.473 460.356 354.443 459.326 354.265L458.484 355.049L457.621 355.835L456.858 355.955C456.836 356.146 456.827 356.339 456.792 356.528C456.475 358.203 455.196 359.074 453.926 360.035L454.067 360.498C455.144 363.926 457.161 367.179 457.917 370.666C458.686 374.215 457.87 378.085 459.35 381.47L459.814 381.497L460.616 379.262L461.258 379.07C463.006 381.242 468.785 400.309 469.303 404.071L468.97 404.365C467.757 403.723 467.585 403.428 466.262 403.694C465.505 404.777 465.352 405.313 465.69 406.64C466.076 408.152 467.154 411.365 468.508 412.273C468.637 412.36 468.787 412.412 468.927 412.482C469.523 412.807 470.306 412.94 470.414 413.684C470.605 414.996 468.39 419.524 468.246 422.866C468.237 423.06 468.154 423.244 468.108 423.433C467.055 422.324 466.957 421.02 466.963 419.492C466.972 417.411 467.584 415.492 466.95 413.472C466.07 413.177 465.38 412.918 464.565 412.459C463.439 409.893 461.615 406.885 462.364 404.042C463.098 403.46 463.815 402.978 464.637 402.531L465.528 402.051C467.285 397.476 459.457 391.945 460.124 386.505C460.986 386.175 460.644 386.415 461.198 385.861C459.29 382.964 456.627 379.62 455.452 376.353C453.049 369.674 455.226 366.282 449.251 360.717L449.887 360.264C450.929 360.683 451.905 361.377 453.004 360.669C453.265 360.501 453.451 360.239 453.674 360.024C454.82 354.091 451.525 347.862 449.216 342.548C450.133 341.769 450.402 341.063 450.846 339.962Z" fill="#271C5B"/>
<path d="M456.011 342.983L457.696 342.613C459.521 344.521 460.711 346.076 461.526 348.601C462.258 352.031 462.88 355.415 464.336 358.626L462.783 360.022C462.274 358.523 461.821 356.67 460.966 355.337C460.412 354.473 460.356 354.443 459.326 354.265L458.484 355.049C456.666 353.633 455.233 345.874 454.864 343.393L456.011 342.983Z" fill="#FEFEFE"/>
<path d="M615.31 249.971C616.75 249.982 617.74 249.953 618.85 250.931C618.86 251.354 618.9 251.576 618.715 252.014C614.71 261.698 581.22 277.751 570.565 282.361C569.7 282.698 569.145 282.816 568.22 282.789L568.075 282.091C572.07 277.031 595.49 263.457 602.485 258.769C606.81 255.873 610.685 252.392 615.31 249.971Z" fill="#271C5B"/>
<path d="M578.38 128.42C578.8 128.563 579.24 128.736 579.63 128.956C590.205 134.912 625.82 173.764 629.125 184.793C628.07 184.575 627.475 184.164 626.715 183.405C619.715 176.415 613.42 168.163 606.885 160.7C597.44 149.908 587.605 139.395 578.38 128.42Z" fill="#322860"/>
<path d="M522.755 159.167C522.795 159.161 522.83 159.152 522.865 159.149C533.145 158.172 549.285 159.59 557.6 166.397L557.305 166.786C553.015 166.581 548.575 165.148 544.395 164.146C530.69 161.583 519.03 162.099 505.545 165.21C511.105 161.988 516.39 160.059 522.755 159.167Z" fill="#281D56"/>
<path d="M450.475 389.362L450.38 388.62C449.755 383.925 447.577 378.24 448.032 373.601L448.682 373.113C450.704 374.451 451.891 377.281 452.36 379.597C452.966 382.589 452.532 384.413 454.258 387.134C455.758 389.499 457.783 392.972 456.971 395.87C456.756 396.638 456.78 396.409 456 396.893L455.258 397.536C455.276 398.763 458.588 401.974 459.42 403.319C459.517 404.677 459.54 404.699 458.777 405.819C458.641 405.769 458.498 405.734 458.368 405.67C456.172 404.588 448.156 395.526 447.177 393.099L447.583 392.477L448.905 392.601C449.653 393.236 450.444 393.986 451.282 394.492C452.413 395.175 453.323 394.907 454.517 394.61C454.66 394.574 454.802 394.534 454.945 394.497C453.507 392.727 452.11 390.957 450.475 389.362Z" fill="#271C5B"/>
<path d="M496.281 395.042C497.25 389.465 495.394 384.757 494.663 379.306C494.241 376.16 492.89 367.862 494.775 365.41L495.628 365.53C498.914 369.624 499.629 378.857 500.335 383.951C501.935 385.967 502.835 388.117 502.5 390.749C502.27 392.56 501.785 393.976 500.285 395.08C499.583 392.997 499.683 391.68 499.97 389.51C498.805 391.406 498.516 393.22 498.108 395.367L496.281 395.042Z" fill="#271C5B"/>
<path d="M500.335 383.951C501.935 385.966 502.835 388.116 502.5 390.748C502.27 392.559 501.785 393.976 500.285 395.08C499.583 392.996 499.683 391.68 499.97 389.509C500.36 387.742 500.265 385.763 500.335 383.951Z" fill="#281D56"/>
<path d="M470.351 333.583L472.014 333.859C472.885 334.451 473.382 335.03 473.728 336.046C474.765 339.088 474.956 342.75 475.646 345.926C476.543 350.059 478.149 353.95 479.739 357.853C479.643 358.489 479.531 359.12 479.43 359.755C479.053 362.125 478.7 363.58 477.271 365.545L476.784 367.705C475.337 366.12 470.753 337.912 470.351 333.583Z" fill="#271C5B"/>
<path d="M481.665 401.294C481.031 402.23 480.376 403.334 479.571 404.126C478.621 405.061 477.663 405.033 476.435 404.976L476.116 404.414C476.132 402.336 476.946 400.503 477.946 398.723L478.521 399.034C478.783 400.158 478.896 401.229 479.766 402.06C480.65 400.825 481.317 397.424 480.661 395.949C480.339 395.224 479.242 394.544 478.983 393.82C478.43 392.269 479.048 387.613 479.186 385.804C479.272 384.69 479.091 383.401 479.954 382.654C480.089 382.715 480.233 382.761 480.359 382.838C483.189 384.562 484.807 393.441 485.637 396.653C486.715 401.698 485.629 403.9 483.234 408.254C482.747 405.948 482.366 403.544 481.665 401.294Z" fill="#271C5B"/>
<path d="M481.665 401.294C481.916 399.314 482.246 397.7 483.126 395.901C483.976 396.126 484.8 396.383 485.637 396.653C486.715 401.698 485.629 403.9 483.234 408.254C482.747 405.947 482.366 403.544 481.665 401.294Z" fill="#281D56"/>
<path d="M488.127 405.725C489.025 406.092 489.958 406.46 490.793 406.957C498.153 411.336 493.308 425.569 494.786 432.401C494.82 432.555 494.862 432.707 494.9 432.861C493.482 430.313 491.735 428.043 490.5 425.371C487.705 419.326 489.038 412.248 488.127 405.725Z" fill="#271C5B"/>
<path d="M452.454 325.459L451.542 324.985C451.877 324.045 452.191 323.721 452.849 322.998C452.219 321.034 450.914 318.424 451.401 316.387L452.25 315.591C453.875 316.37 454.868 319.139 455.492 320.785C456.084 322.346 455.857 323.612 455.456 325.204L453.96 326.24C456.894 328.84 459.016 330.305 460.411 334.106C460.303 334.871 460.201 335.627 460.058 336.386C459.344 340.169 461.061 343.452 462.602 346.828L461.527 348.601C460.712 346.076 459.521 344.521 457.696 342.613C456.809 338.193 455.755 334.778 453.376 330.941C451.952 328.642 451.957 328.083 452.454 325.459Z" fill="#271C5B"/>
<path d="M485.208 374.803C484.327 371.414 480.782 363.394 482.213 360.626C483.714 360.829 484.562 361.629 485.444 362.849C487.67 365.931 488.485 369.331 488.148 373.098C487.592 374.098 486.948 374.403 485.973 374.956L486.715 376.219C486.35 377.18 486.167 378.033 486.017 379.051C485.702 381.186 485.468 384.13 483.62 385.546L483.006 384.777C482.715 382.367 481.351 375.299 482.531 373.327C483.972 373.36 484.167 373.858 485.208 374.803Z" fill="#271C5B"/>
<path d="M472.254 404.267L478.361 407.269C479.028 411.189 480.816 417.539 479.254 421.263C478.848 422.231 479.134 421.979 478.379 422.289L477.019 420.2L476.722 420.266C476.13 422.276 477.626 423.368 477.392 425.613C477.177 426.868 477.293 428.132 477.347 429.398L476.575 429.222C471.761 424.326 475.787 422.409 475.845 416.99C475.89 412.87 473.924 407.981 472.254 404.267Z" fill="#271C5B"/>
<path d="M462.602 346.828C462.278 343.606 461.71 336.96 462.375 333.924L462.868 333.821C463.552 334.824 464.2 335.815 464.806 336.869C465.137 336.861 465.468 336.838 465.8 336.846C466.049 336.852 466.296 336.89 466.544 336.913C466.581 338.136 466.53 338.308 465.927 339.375C464.942 339.362 465.39 339.5 464.578 338.973C463.564 341.661 465.715 346.206 466.034 349.11C466.241 350.991 466.493 359.308 465.586 360.786L464.336 358.626C462.88 355.415 462.258 352.031 461.526 348.601L462.602 346.828Z" fill="#271C5B"/>
<path d="M571.06 427.131C571.44 427.309 571.7 427.39 572.005 427.686C575.595 431.215 576.03 443.669 576.015 448.375C574.575 446.864 573.275 445.417 572.36 443.525C570.13 438.936 569.425 432.018 571.06 427.131Z" fill="#322860"/>
<path d="M467.699 366.579C468.949 368.598 470.137 370.554 471.7 372.354L474.456 372.552C472.772 377.968 474.506 383.689 474.399 389.333C469.501 382.308 468.4 375.01 467.699 366.579Z" fill="#281D56"/>
<path d="M456.506 286.791C457.048 287.055 457.479 287.308 457.806 287.847C459.248 290.228 460.249 297.261 461.403 300.522C462.067 302.397 464.265 306.234 464.368 307.981C464.402 308.543 464.176 309.09 464.08 309.645C460.649 304.842 456.956 299.01 455.709 293.17C455.184 290.712 455.173 288.915 456.506 286.791Z" fill="#271C5B"/>
<path d="M505.885 380.658C506.62 380.92 507.175 381.142 507.78 381.644C512.345 385.435 515.245 394.522 515.86 400.242C515.415 400.333 514.935 400.3 514.485 400.308C511.99 393.494 507.91 387.759 505.885 380.658Z" fill="#271C5B"/>
<path d="M610.785 460.348C611.08 461.822 610.805 463.039 610.625 464.516C610.115 468.683 609.465 473.356 610.29 477.521C610.705 479.624 611.505 481.544 611.73 483.7L611.05 483.394C608.615 479.939 607.265 476.808 607.02 472.546C606.775 468.316 607.87 463.511 610.785 460.348Z" fill="#271C5B"/>
<path d="M449.252 360.716L448.208 361.055L447.375 360.563C446.771 357.686 443.628 345.524 444.31 343.401C445.343 343.648 445.844 344.069 446.459 344.923C448.729 348.077 450.416 356.499 449.887 360.264L449.252 360.716Z" fill="#281D56"/>
<path d="M482.897 423.829C483.795 424.212 484.653 424.683 485.491 425.184C488.109 426.748 489.889 429.323 490.505 432.311C490.99 434.661 490.832 437.205 489.444 439.212L488.626 439.345C487.806 437.765 488.058 436.636 488.103 434.875C488.137 432.98 487.889 431.54 487.377 429.72C486.378 431.078 487.262 434.336 486.466 436.209C484.516 433.36 484.715 427.934 483.182 424.461L482.897 423.829Z" fill="#281D56"/>
<path d="M483.533 338.65C484.033 338.985 484.455 339.253 484.754 339.816C486.82 343.715 487.967 354.61 487.11 358.668C486.245 357.527 485.734 356.283 485.211 354.966C483.35 350.283 481.443 343.445 483.533 338.65Z" fill="#271C5B"/>
<path d="M458.484 355.049L459.326 354.265C460.356 354.443 460.412 354.473 460.966 355.337C461.821 356.67 462.274 358.523 462.783 360.022C463.146 362.867 464.348 367.485 462.54 369.948L461.556 370.078C459.705 365.894 460.32 360.647 458.129 356.698C457.967 356.406 457.79 356.123 457.621 355.835L458.484 355.049Z" fill="#322860"/>
<path d="M462.987 313.333C464.887 319.927 464.758 327.057 466.811 333.803L466.336 334.559C465.182 332.94 463.707 331.528 462.348 330.077C461.764 324.619 460.454 318.432 462.987 313.333Z" fill="#271C5B"/>
<path d="M511.795 422.702C514.31 424.362 515.09 428.793 516.035 431.612C515.13 434.029 514.065 436.397 513.06 438.775L512.9 439.066L512.185 439.162C511.895 438.771 511.81 438.716 511.655 438.177C511.59 437.952 511.205 425.526 511.235 424.282C511.25 423.68 511.53 423.218 511.795 422.702Z" fill="#322860"/>
<path d="M471.7 372.354C470.627 368.424 469.136 364.034 469.752 359.924L470.495 359.012C471.714 359.008 472.554 359.36 473.441 360.241C473.756 360.554 473.851 360.83 474.022 361.206C471.196 367.282 474.391 366.972 474.456 372.553L471.7 372.354Z" fill="#271C5B"/>
<path d="M468.005 382.306C468.455 382.732 468.668 382.906 469.041 383.34C470.743 385.323 470.047 386.769 470.164 389.105C470.235 390.517 471.682 391.408 472.676 392.244L473.22 392.694L472.948 393.446C471.577 393.731 470.448 393.138 469.189 392.662C469.603 394.21 470.154 395.778 469.511 397.322C469.161 397.024 469.036 396.958 468.778 396.501C466.711 392.834 467.217 386.314 468.005 382.306Z" fill="#271C5B"/>
<path d="M441.63 310.669C443.151 311.042 443.949 311.564 444.898 312.786C447.595 316.258 449.144 320.346 448.51 324.731L447.897 324.78C446.062 323.293 442.424 313.291 441.63 310.669Z" fill="#271C5B"/>
<path d="M449.216 342.548C447.808 339.328 444.75 333.395 445.927 330.009L445.773 330.893L447.09 331.037C449.152 333.891 450 336.613 450.847 339.962C450.402 341.063 450.133 341.769 449.216 342.548Z" fill="#281D56"/>
<path d="M648.425 499.863C650.235 500.555 651.695 501.78 653.48 502.48C656.465 503.645 662.14 503.81 664.16 506C663.13 506.31 662.07 506.555 660.995 506.605C655.585 506.845 652.1 503.265 648.425 499.863Z" fill="#281D56"/>
<path d="M288.24 442.927C334.122 459.517 376.219 486.468 415.887 514.47C451.009 539.07 484.922 565.35 517.505 593.225C529.51 603.16 541.23 613.43 552.65 624.025C557.75 628.705 563.32 633.31 567.86 638.535C570.36 641.41 572.46 644.52 573.835 648.095C580.7 666.005 578.485 695.335 577.16 714.385C574.835 713.315 572.7 711.925 570.53 710.58C547.765 694.93 524.04 680.81 501.79 664.37C476.569 645.91 451.584 627.13 426.844 608.03C386.248 577.03 345.899 543.595 298.065 524.315C290.776 521.375 283.428 518.5 275.795 516.585C279.359 492.002 283.854 467.388 288.24 442.927Z" fill="#D2D0D0"/>
<path d="M820.565 643.555C821.985 643.48 823.355 643.46 824.765 643.69C829.86 644.53 833.185 647.69 836.025 651.805C834.87 661.31 830.115 668.82 825.03 676.71C820.05 684.425 810.58 699.075 803.325 704.04C801.485 705.3 799.405 705.945 797.23 706.37C787.545 708.26 776.74 705.28 768.725 699.85C769.96 701.96 771.185 703.975 773.05 705.59C780.65 712.165 792.885 713.32 802.465 712.44C793.54 720.525 782.535 724.6 770.515 724.605C766.935 724.605 763.985 722.22 760.465 721.84C760.05 722.99 760.155 723.055 760.545 724.23C762.035 725.705 763.91 726.4 765.875 727.035C778.97 731.255 789.14 728.28 800.88 722.18C795.86 726.75 790.13 730.08 783.855 732.65C773.39 736.935 759.965 738.355 753.775 748.895C762.365 742.545 773.695 741.405 783.735 738.24C791.225 735.865 798.62 733.185 805.9 730.21C800.995 734.91 796.37 739.895 791.415 744.55C780.64 754.665 768.275 763.86 760.69 776.79C764.795 772.695 768.915 768.545 773.4 764.86C783.69 756.4 806.505 741.81 811.935 730.535C815.22 732.925 818.685 735.225 821.465 738.205C819.915 742.705 818.72 747.33 819.645 752.11C820.865 758.445 825.325 762.235 830.375 765.655C841.595 797.42 824.465 814.285 816.93 842.87C826.005 824.305 838.045 808.725 855.045 796.75C856.47 798.31 858.07 799.725 859.61 801.175C844.35 814.225 827.61 835.13 824.76 855.655C826.925 851.615 828.2 847.08 830.375 842.975C837.045 830.365 847.005 818.905 857.01 808.815C859.27 806.515 861.825 804.445 864.26 802.33C872.28 803.385 878.215 803.985 885.565 799.935C895.56 816.235 905.09 832.81 914.14 849.65C911.17 853.35 909.105 857.52 906.81 861.645C901.57 871.055 894.875 878.43 884.71 882.545C869.215 888.825 852.705 886.88 837.645 880.565C840.11 882.9 842.515 884.86 845.465 886.555C858.395 893.98 871.385 893.505 885.355 889.75L872.11 929.035C869.245 937.565 866.945 947.905 862.165 955.57C861.41 955.235 860.655 954.885 859.915 954.52C842.8 946.075 796.145 877.11 789.705 857.755C806.77 866.61 823.295 876.12 842.635 878.8C829.13 870.45 799.805 858.24 790.1 847.795C787.65 845.16 785.92 841.605 784.19 838.455C774.17 820.22 765.745 801.23 757.075 782.335C752.445 772.245 746.375 761.785 743.94 750.92C743.41 748.53 744.015 746.1 744.7 743.805C748.695 730.43 769.15 687.73 778.97 680.1C786.125 674.545 796.025 672.465 802.39 665.91C809.39 658.695 809.315 649.675 820.565 643.555Z" fill="#D2D0D0"/>
<path d="M263.607 526.925L264.235 526.955C276.778 535.315 291.207 538.515 304.623 545.07C296.152 554.31 285.889 562.615 276.685 571.18C264.615 582.35 253.068 594.07 242.08 606.305C225.452 624.555 208.273 643.425 202.134 668.085C181.172 669.745 160.611 674.56 143.109 686.785C124.563 699.745 116.187 719.535 107.124 739.425C86.362 784.995 74.852 817.96 70.9345 868.25C68.6275 897.865 68.252 927.605 62.9085 956.905C61.033 968.715 58.2785 980.365 56.894 992.255C55.175 979.265 55.949 959.555 56.1625 946.255C56.846 903.685 59.8105 866.585 65.3275 824.325C68.5835 799.385 72.28 774.605 77.8655 750.06C81.4995 734.09 86.118 718.86 93.6115 704.235C124.088 644.74 206.927 562.615 263.607 526.925Z" fill="#D2D0D0"/>
<path d="M290.763 431.335C343.658 449.764 397.028 487.11 442.714 519.495C478.661 545.475 513.28 573.245 546.445 602.695C556.44 611.65 567.425 620.385 575.715 630.975C582.085 639.11 586.12 647.675 588.41 657.75C594.145 683.01 586.6 706.65 590.775 731.155C578.04 722.965 564.645 715.84 551.865 707.695C526.965 691.83 502.65 674.61 478.826 657.18C455.967 640.44 433.352 623.375 410.988 605.98C379.637 581.785 347.665 556.47 312.277 538.4C304.621 534.49 296.631 531.235 288.672 528.005C284.982 526.365 276.191 524.89 274.203 521.425L274.546 520.585C278.329 519.685 288.3 524.385 292.208 526.03C302.069 530.18 311.864 534.285 321.325 539.3C359.823 559.71 393.859 588.055 428.303 614.455C458.866 638.23 490.1 661.135 521.965 683.14C533.935 691.355 546.195 698.96 558.43 706.755C563.165 709.775 567.79 713.785 572.805 716.265C574.32 717.015 576.87 717.21 578.475 716.56C579.785 716.03 580.235 715.505 580.725 714.175C582.125 710.385 581.8 704.78 581.97 700.775C582.67 684.615 583.495 657.895 575.76 643.74C569.265 631.855 551.775 618.24 541.415 608.87C512.175 582.745 481.755 557.97 450.252 534.625C414.11 507.55 377.031 481.646 337.103 460.406C321.9 452.319 305.819 444.161 289.207 439.403C289.587 436.703 290.228 434.009 290.763 431.335Z" fill="url(#paint0_linear_6_2)"/>
<path d="M859.79 740.345C864.85 733.86 874.185 724.72 880.67 719.72C887.275 714.63 925.045 693.57 931.88 692.62C935.32 692.14 939.01 692.905 941.765 695.075C946.03 698.435 947.99 704.815 948.385 710.055C949.055 718.99 948.665 727.62 950.345 736.515C945.035 736.41 940.27 737.215 935.12 738.46C939.52 733.96 943.905 729.72 943.96 723.01L943.51 722.44C942.045 722.755 941.02 723.97 940.22 725.175C938.645 727.565 937.4 730.485 935.315 732.455C929.495 737.945 900.98 745.35 891.155 750.15C884.855 753.225 880.235 758.15 874.63 762.17C869.78 766.605 864.87 771.52 859.36 775.1C857.525 776.29 854.5 778.175 852.235 777.505C848.91 776.52 844.695 765.61 843.175 762.435C846.46 759.62 850.94 753.685 854.795 752.245C856.01 751.795 857.18 751.78 858.33 752.455C860.07 753.475 860.965 756.465 861.465 758.26C862.145 760.7 862.365 763.065 861 765.325C858.415 769.615 854.52 770.525 850.145 771.8C850.17 773.035 850.31 773.06 850.905 774.065C852.08 774.6 853.015 774.565 854.23 774.195C859.5 772.585 864.275 767.17 866.69 762.325C866.325 761.445 866.225 760.455 866.055 759.515C864.605 746.445 859.78 750.865 856.955 746.16L857.98 744.27C858.21 742.305 858.64 741.9 859.79 740.345Z" fill="#D2D0D0"/>
<path d="M843.175 762.435C846.46 759.62 850.94 753.685 854.795 752.245C856.01 751.795 857.18 751.78 858.33 752.455C860.07 753.475 860.965 756.465 861.465 758.26C862.145 760.7 862.365 763.065 861 765.325C858.415 769.615 854.52 770.525 850.145 771.8C850.17 773.035 850.31 773.06 850.905 774.065C852.08 774.6 853.015 774.565 854.23 774.195C859.5 772.585 864.275 767.17 866.69 762.325L871.39 756.785L871.63 757.635C868.775 762.595 860.315 773.9 854.655 775.365C853.705 775.61 852.785 775.705 851.81 775.775C853.705 776.595 856.08 776 857.915 775.235C861.235 773.845 862.69 770.89 865.525 768.925C868.14 767.11 871.57 762.23 874.51 761.54L874.63 762.17C869.78 766.605 864.87 771.52 859.36 775.1C857.525 776.29 854.5 778.175 852.235 777.505C848.91 776.52 844.695 765.61 843.175 762.435Z" fill="#FEFEFE"/>
<path d="M866.96 740.04C869.955 741.845 873.62 744.16 874.645 747.725C875.03 749.07 874.94 750.42 874.265 751.665C873.98 752.185 873.59 752.675 873.235 753.15L873.405 754.775C872.45 755.46 872 755.75 871.39 756.785L866.69 762.325C866.325 761.445 866.225 760.455 866.055 759.515C864.605 746.445 859.78 750.865 856.955 746.16L857.98 744.27C860.925 742.77 863.845 741.175 866.96 740.04Z" fill="#D2D0D0"/>
<path d="M873.235 753.15L873.405 754.775C872.45 755.46 872 755.75 871.39 756.785L866.69 762.325C866.325 761.445 866.225 760.455 866.055 759.515C866.46 758.885 866.87 758.255 867.285 757.63C869.05 755.005 870.01 753.78 873.235 753.15Z" fill="#281D56"/>
<path d="M859.79 740.345C861.845 739.065 863.88 737.63 866.125 736.705C870.815 737.945 874.575 739.765 877.22 744.11C878.265 745.825 878.9 747.74 878.395 749.745C877.91 751.66 876.455 753.17 874.77 754.125C874.09 754.51 874.045 754.51 873.405 754.775L873.235 753.15C873.59 752.675 873.98 752.185 874.265 751.665C874.94 750.42 875.03 749.07 874.645 747.725C873.62 744.16 869.955 741.845 866.96 740.04C863.845 741.175 860.925 742.77 857.98 744.27C858.21 742.305 858.64 741.9 859.79 740.345Z" fill="#271C5B"/>
<path d="M840.82 712.535C846.695 704.39 852.31 695.375 859.3 688.175C866.245 681.02 898.235 659.24 907.66 657.74C911.2 657.175 914.125 657.96 916.945 660.185C923.965 665.72 928.635 677.26 931.5 685.44C919.01 689.705 908.035 697.385 896.525 703.69C890.935 706.75 884.95 709.15 879.525 712.5C876.055 714.65 872.67 717.17 869.675 719.95C864.71 724.555 859.84 729.455 855.465 734.62C853.73 736.665 851.17 741.205 849.375 742.675C846.135 748.62 842.425 753.175 837.37 757.675C834.215 757.195 831.56 756.695 828.975 754.645C827.115 753.165 825.94 751.14 825.665 748.775C824.995 743.035 829 736.3 832.545 731.995C834.555 733.13 836.555 734.33 838.19 735.985C844.94 742.835 833.555 753.385 833.58 755.23C834.245 755.3 834.9 755.515 835.53 755.22C839.325 753.45 844.5 743.28 845.735 739.205C845.68 738.01 845.475 738.24 846.31 737.245C849.06 733.955 852.935 727.595 852.46 723.205C852.125 720.13 849.96 718.05 847.615 716.275C845.505 714.68 843.27 713.51 840.82 712.535Z" fill="#D2D0D0"/>
<path d="M832.545 731.995C834.555 733.13 836.555 734.33 838.19 735.985C844.94 742.835 833.555 753.385 833.58 755.23C834.245 755.3 834.9 755.515 835.53 755.22C839.325 753.45 844.5 743.28 845.735 739.205L846.355 739.68C846.3 742.98 838.915 753.155 839.005 753.46C839.1 753.8 839.385 754.045 839.58 754.34L839.07 753.215L838.965 753.495L839.9 754.16L838.945 754.295L839.46 754.815C842.405 752.855 846.96 742.905 849.375 742.675C846.135 748.62 842.425 753.175 837.37 757.675C834.215 757.195 831.56 756.695 828.975 754.645C827.115 753.165 825.94 751.14 825.665 748.775C824.995 743.035 829 736.3 832.545 731.995Z" fill="#FEFEFE"/>
<path d="M886.695 764.2L885.765 763.655C886.25 761.175 891.075 757.63 893.215 756.195C902.61 749.88 938.515 740.205 949.655 742.285C952.435 742.805 954.87 744.075 956.46 746.47C960.285 752.235 958.84 761.62 957.325 767.98C954.425 780.18 951.105 791.88 950.365 804.5C947.945 799.17 944.31 793.295 942.82 787.74C943.785 786.065 948.615 786.69 947.31 783.82C946.87 782.85 945.73 781.455 944.755 781.065C942.775 780.265 941.585 779.6 940.085 778.12C939.895 777.94 939.705 777.765 939.52 777.585C939.405 777.475 939.295 777.365 939.185 777.25C943.8 774.12 948.23 770.365 951.255 765.62C951.07 765.695 950.885 765.765 950.7 765.84C945.385 768.06 940.945 771.965 935.64 774.16C928.175 777.245 919.86 776.7 912.425 779.42C906.045 781.755 899.54 784.705 893.475 787.78C885.36 791.89 879.045 796.375 869.755 797.465C875.545 793.51 882.3 789.7 885.88 783.475C884.89 780.13 883.9 777.23 881.745 774.42C880.215 773.67 878.685 772.875 877.115 772.21C879.315 769.21 882.475 767.195 885.36 764.9C885.5 764.785 885.675 764.725 885.83 764.64L886.695 764.2Z" fill="#D2D0D0"/>
<path d="M886.695 764.2C889.83 765.255 892.7 766.14 894.235 769.365C895.44 771.885 895.145 774.71 894.16 777.25C892.335 781.965 889.02 784.665 885.02 787.43C885.91 785.315 887.32 779.675 888.73 778.27C888.78 778.46 888.83 778.655 888.885 778.845C889.14 779.76 889.04 779.425 889.45 780.44C890.635 779.83 891.375 778.255 891.82 777.04C892.58 774.97 892.16 772.3 891.085 770.41C889.85 768.235 887.615 766.375 885.83 764.64L886.695 764.2Z" fill="#271C5B"/>
<path d="M835.33 674.915C842.58 662.21 860.995 636.67 875.73 633.045C878.855 632.28 881.68 632.93 884.365 634.65C890.655 638.665 896.19 647.375 899.38 653.98C886.01 662.355 859.005 678.155 849.44 688.76C843.925 694.875 840.73 702.815 835.27 708.87L834.915 708.09C832.92 710.555 830.85 713.06 828.23 714.89C826.97 715.77 826.085 716.08 824.575 715.83C826.355 713.085 830.785 712.33 833.12 708.585L832.65 707.8C834.435 704.155 837.99 697.965 836.14 693.8C835.59 692.565 834.875 691.71 833.585 691.22C830.29 689.97 826.085 691.585 822.975 692.755C826.505 687.895 829.985 682.995 833.41 678.055C836.525 679.55 840.835 681.385 842.17 684.815C842.975 686.875 842.42 688.595 841.785 690.605C841.51 691.46 841.38 692.22 841.275 693.11L841.225 692.78L841.555 693.195C843.625 691.46 845.18 688.865 845.38 686.125C845.56 683.68 844.6 681.77 842.995 679.99C840.885 677.645 838.125 676.28 835.33 674.915Z" fill="#D2D0D0"/>
<path d="M730.515 482.776C741.155 478.308 751.375 476.422 762.495 480.726C765.195 481.589 767.775 482.437 770.325 483.692C773.73 485.444 777.07 487.502 779.995 489.995C781.97 491.495 783.89 492.973 785.685 494.693C769.04 492.564 756.275 497.31 741.025 503.405C735.17 506.445 726.85 510.89 722.41 515.855C721.27 517.135 719.995 518.88 718.355 519.475C717.34 519.09 716.515 518.73 715.42 518.67C714.565 518.625 714.545 518.925 713.965 519.47C714.355 520.62 715.095 520.785 716.09 521.405L716.29 522.365C715.56 523.3 715.745 523.46 714.5 523.66C713.87 522.76 713.43 522.035 712.5 521.415C711.56 522.08 711.595 522.57 711.21 523.62C711.9 524.565 712.515 525.23 712.675 526.425C712.06 527.265 711.765 527.745 710.75 528.065C709.755 527.55 708.755 527.07 707.74 526.605L706.96 527.245C706.625 528.7 706.575 528.655 707.29 529.96C708.21 530.365 708.675 530.585 709.415 531.285C709.205 532.49 708.885 532.86 708.02 533.7L707.305 533.51C706.91 532.31 706.65 531.055 705.695 530.17L704.895 530.5C704.785 532.23 705.015 532.8 706.05 534.205C706.84 535.28 706.665 534.66 706.565 536C704.755 536.88 705.265 535.555 703.415 535.755L702.225 537.37C701.2 536.135 701.16 532.66 701.055 531.035C700.34 519.575 703.25 506.855 710.995 498.011C716.645 491.169 722.695 486.9 730.515 482.776Z" fill="#FEFEFE"/>
<path d="M737.495 484.687C737.79 483.444 738.72 482.107 739.825 481.437C740.545 481 741.245 480.974 742.04 481.145C742.925 481.334 743.11 481.994 743.61 482.69C744.795 483.012 745.98 483.017 746.695 484.049C746.195 484.901 745.685 485.725 745.13 486.541L745.235 487.688C744.605 488.423 744.455 489.024 743.45 489.105C741.455 489.265 740.455 488.837 738.91 490.216C738.73 490.857 738.5 491.523 738.38 492.177L737.66 491.954L737.38 492.463L737.895 492.916C739.01 493.932 739.615 494.46 739.905 496.022L739.305 496.834C738.24 496.877 737.585 496.846 736.59 496.453L735.815 496.919C734.47 497.65 734.335 497.551 733.835 498.973C734.095 500.17 734.35 501.3 734.76 502.46C736.92 502.535 738.73 502.5 740.82 501.925L741.025 503.405C735.17 506.445 726.85 510.89 722.41 515.855C721.27 517.135 719.995 518.88 718.355 519.475C717.34 519.09 716.515 518.73 715.42 518.67C714.565 518.625 714.545 518.925 713.965 519.47C714.355 520.62 715.095 520.785 716.09 521.405L716.29 522.365C715.56 523.3 715.745 523.46 714.5 523.66C713.87 522.76 713.43 522.035 712.5 521.415C711.56 522.08 711.595 522.57 711.21 523.62C711.9 524.565 712.515 525.23 712.675 526.425C712.06 527.265 711.765 527.745 710.75 528.065C709.755 527.55 708.755 527.07 707.74 526.605L706.96 527.245C706.625 528.7 706.575 528.655 707.29 529.96C708.21 530.365 708.675 530.585 709.415 531.285C709.205 532.49 708.885 532.86 708.02 533.7L707.305 533.51C706.91 532.31 706.65 531.055 705.695 530.17L704.895 530.5C704.785 532.23 705.015 532.8 706.05 534.205C706.84 535.28 706.665 534.66 706.565 536C704.755 536.88 705.265 535.555 703.415 535.755L702.225 537.37C701.2 536.135 701.16 532.66 701.055 531.035C700.34 519.575 703.25 506.855 710.995 498.011L711.42 498.209L712.81 497.69L713.355 498.212L713.21 500.29L715.74 499.482L716.665 500.015L716.945 501.465L717.445 502.025C717.395 503.42 717.175 503.925 718.24 504.98C718.915 505.645 719.94 506.2 720.74 506.725L722.065 504.82L724.755 504.01L724.635 503.04C724.79 500.99 724.71 499.449 724.14 497.471L724.535 497.181C725.29 497.268 725.59 497.499 726.235 496.983C727.67 495.838 727.825 494.194 727.895 492.502C727.615 489.453 730.09 490.207 730.32 487.992C730.47 486.54 729.9 486.323 730.545 484.784C732.02 485.911 733.145 487.178 735.03 487.33L735.65 486.911C735.625 485.813 736.41 484.864 737.495 484.687Z" fill="#D2D0D0"/>
<path d="M730.55 496.895C732.475 497.239 733.505 496.76 735.265 495.986C735.73 496.114 736.185 496.185 736.59 496.453L735.815 496.919C734.47 497.65 734.335 497.551 733.835 498.973C734.095 500.17 734.35 501.3 734.76 502.46L734.255 502.265C733.43 503.875 734.975 504.6 732.425 505.475C731.63 505.745 731.525 505.595 730.77 505.375L730.57 504.715L731.685 503.38L730.58 503.165L729.175 502.715C729.315 501.97 729.36 501.525 729.205 500.775C729.15 500.51 729.075 500.245 729.025 499.977C728.755 498.575 728.7 498.178 729.505 496.985L730.55 496.895Z" fill="#FEFEFE"/>
<path d="M711.42 498.209L712.81 497.69L713.355 498.212L713.21 500.29L715.74 499.482L716.665 500.015L716.945 501.465C716.105 502.75 715.055 502.85 714.45 504.205L715.22 506.14C714.615 507.24 714.33 507.3 713.2 507.9C711.995 507.655 712.045 507.63 711.285 506.65C711.41 504.33 713.08 504.085 713.46 502.03L712.87 501.38C711.955 501.48 711.075 501.545 710.155 501.55C710.1 500.28 710.825 499.283 711.42 498.209Z" fill="#281D56"/>
<path d="M730.55 496.896C729.89 495.722 729.755 495.176 729.835 493.83C731.13 493.084 732.975 494.04 734.44 494.32C736.05 494.628 736.595 493.807 737.895 492.916C739.01 493.932 739.615 494.46 739.905 496.023L739.305 496.835C738.24 496.877 737.585 496.846 736.59 496.454C736.185 496.186 735.73 496.114 735.265 495.986C733.505 496.76 732.475 497.239 730.55 496.896Z" fill="#271C5B"/>
<path d="M737.495 484.687C738.4 484.539 739.305 484.968 739.76 485.765C740.215 486.561 740.13 487.558 739.545 488.265C738.96 488.972 737.995 489.241 737.13 488.939C736.26 488.638 735.67 487.83 735.65 486.912C735.625 485.814 736.41 484.865 737.495 484.687Z" fill="#322860"/>
<path d="M722.065 504.82L724.755 504.01L725.855 504.305C725.925 505.98 725.875 506.055 724.945 507.46C723.69 507.955 723.42 508.03 722.09 507.865L720.74 506.725L722.065 504.82Z" fill="#281D56"/>
<path d="M743.61 482.69C744.795 483.012 745.98 483.017 746.695 484.049C746.195 484.901 745.685 485.725 745.13 486.541C744.225 487.141 743.705 487.312 742.63 487.42L742.045 486.741C742.115 484.943 742.59 484.15 743.61 482.69Z" fill="#281D56"/>
<path d="M737.38 492.464C736.91 492.637 736.725 492.726 736.185 492.819C734.875 493.047 734.19 492.885 733.105 492.184C732.925 490.912 733.005 490.862 733.63 489.725C734.76 489.123 734.71 489.074 735.94 489.383C736.79 490.203 737.175 490.88 737.66 491.954L737.38 492.464Z" fill="#322860"/>
<path d="M706.255 506.765C707.21 507.105 708.095 507.31 708.82 508.055C709.325 508.575 709.14 508.5 709.115 509.36C704.965 513.5 707.935 514.175 705.24 517.935C704.61 517.415 703.845 516.745 703.445 516.025C702.915 515.08 703.165 514.51 703.485 513.6C704.555 512.785 705.64 512.15 706.135 510.84C705.765 509.21 705.86 508.395 706.255 506.765Z" fill="#281D56"/>
<path d="M709.69 514.92C711.005 514.47 712.435 515.175 712.885 516.49C713.33 517.805 712.625 519.235 711.305 519.68C709.995 520.125 708.565 519.42 708.12 518.11C707.675 516.795 708.375 515.37 709.69 514.92Z" fill="#322860"/>
<path d="M716.32 511.61C717.77 512.055 718.27 512.06 719.265 513.255C719.305 514.805 718.695 515.755 717.975 517.065C716.285 516.62 715.305 516.285 714.38 514.785C714.75 513.135 715.195 512.82 716.32 511.61Z" fill="#281D56"/>
<path d="M711.025 509.165C711.8 508.92 712.645 509.115 713.235 509.675C713.82 510.235 714.055 511.07 713.845 511.855C713.635 512.64 713.015 513.25 712.225 513.44C711.065 513.72 709.89 513.03 709.565 511.88C709.245 510.73 709.89 509.53 711.025 509.165Z" fill="#281D56"/>
<path d="M702.83 521.855C703.785 522.48 704.35 523.135 705.055 524.025C705.43 525.65 705.1 526.43 704.485 527.895C704.2 527.82 703.905 527.775 703.625 527.67C702.41 527.2 702.3 526.66 701.795 525.55C701.86 524.01 702.135 523.235 702.83 521.855Z" fill="#281D56"/>
<path d="M708.33 520.22C709.22 520.945 709.74 521.73 710.385 522.665C710.435 524.26 710.32 524.345 709.42 525.68C708.7 525.14 708.09 524.56 707.44 523.94C707.155 522.29 707.655 521.72 708.33 520.22Z" fill="#281D56"/>
<path d="M724.635 503.04C722.72 502.43 721.46 501.36 720.26 499.732C719.495 498.693 719.37 497.703 719.585 496.453L720.54 495.788C722.335 495.964 722.72 496.42 724.14 497.471C724.71 499.449 724.79 500.99 724.635 503.04Z" fill="#271C5B"/>
<path d="M735.815 496.919C737.84 498.243 740.16 499.409 740.82 501.925C738.73 502.5 736.92 502.535 734.76 502.46C734.35 501.3 734.095 500.17 733.835 498.973C734.335 497.551 734.47 497.65 735.815 496.919Z" fill="#322860"/>
<path d="M745.235 487.688C746.29 486.608 746.73 486.185 748.26 485.84L748.785 486.097C747.35 488.762 744.285 490.416 742.405 492.877C741.005 493.187 739.705 492.595 738.38 492.177C738.5 491.523 738.73 490.856 738.91 490.215C740.455 488.837 741.455 489.265 743.45 489.105C744.455 489.024 744.605 488.423 745.235 487.688Z" fill="#322860"/>
<path d="M724.535 497.181C723.935 495.521 723.195 494.045 723.895 492.349C725.285 491.743 726.485 492.183 727.895 492.502C727.825 494.194 727.67 495.838 726.235 496.983C725.59 497.499 725.29 497.268 724.535 497.181Z" fill="#322860"/>
<path d="M717.445 502.025C718.75 501.575 718.88 501.43 720.175 501.835L720.645 502.695C721.07 503.455 721.52 504.13 722.065 504.82L720.74 506.725C719.94 506.2 718.915 505.645 718.24 504.98C717.175 503.925 717.395 503.42 717.445 502.025Z" fill="#322860"/>
<path d="M744.53 524.555C756.865 516.085 772.77 509.8 787.935 512.71C793.215 513.72 798.355 515.975 801.395 520.62C805.67 527.165 803.3 535.615 803.355 542.905C789.145 539.35 781.565 540.76 768.15 546.385C764.265 548.01 760.415 549.655 756.125 549.82C756.8 548.92 756.455 549.345 757.165 548.535C757.145 546.885 756.715 545.75 756.09 544.235C755.95 544.155 755.81 544.075 755.67 543.99C754.095 543.04 753.085 542.02 751.925 540.605L751.23 540.45L750.005 541.385C749.905 542.6 749.985 542.81 750.86 543.775C751.07 544.005 751.315 544.2 751.54 544.415L751.26 544.68C749.665 544.2 747.43 542.6 746.455 541.26C747.23 539.73 748.885 540.24 750.48 539.71L751.01 538.455L751.69 538.02L752.47 537.185C752.295 535.345 750.955 533.755 749.955 532.245C749.975 531.6 749.71 531.06 749.505 530.455C748.27 529.74 747.74 529.61 746.32 529.73C745.285 530.4 744.78 530.785 744.205 531.88L744.015 531.565C743.815 530.835 743.9 530.26 743.185 529.885C742.265 529.39 741.285 529.31 740.265 529.17C740.875 528.065 741.275 527.92 742.37 527.255C743.14 527.465 743.29 527.595 743.915 528.04C744.82 528.68 745.445 528.83 746.565 528.93L747.33 528.29C747.01 526.5 745.89 525.72 744.53 524.555Z" fill="#FEFEFE"/>
<path d="M777.995 852.745C778.545 853.745 778.405 853.36 778.695 854.305C784.47 873.16 806.15 904.485 818.315 920.66C827.275 932.57 847.57 961.045 862.905 962.89C870.165 963.77 877.065 960.475 882.69 956.165C902.81 940.735 913.32 911.41 916.585 887.165C916.955 890.81 916.97 894.48 917.04 898.145C917 903.305 916.405 908.45 915.275 913.49C911.08 931.92 899.575 954.935 883.025 965.235C876.13 969.525 868.21 971.625 860.15 969.68C837.35 964.175 811.875 924.13 800.295 904.93C794.61 895.505 789.68 885.81 784.525 876.105C782.005 871.36 778.32 866.14 777.07 860.925C776.43 858.24 777.345 855.35 777.995 852.745Z" fill="#D2D0D0"/>
<path d="M616.275 409.901C627.575 410.527 650.485 415.749 660.76 420.872C670.525 425.738 686.695 439.234 690.385 449.71L689.795 450.474C683.595 453.981 671.935 451.266 665.17 449.859C645.485 445.769 626.885 426.096 616.275 409.901Z" fill="#FEFEFE"/>
<path d="M774.98 498.705C782.25 498.22 790.145 498.711 796.5 502.655C802.345 506.28 804.34 511.52 805.765 517.89C803.85 516.02 801.93 514.36 799.67 512.92C790.65 507.15 779.715 506.19 769.42 508.52C749.485 513.03 727.72 529.37 716.935 546.7C715.645 549.34 714.485 551.885 713.87 554.78C712.385 561.75 714.245 566.905 718.03 572.645C716.34 571.54 714.635 570.435 713.01 569.24C708.595 566.005 705.53 561.46 704.845 555.98C703.68 546.71 710.635 537.62 716.185 530.81C730.595 513.145 752.245 501.065 774.98 498.705Z" fill="#FEFEFE"/>
<path d="M793.565 553.635C795.89 553.645 798.225 553.835 800.54 553.96C812.87 576.805 824.52 600.13 837.94 622.36C819.2 623.81 807.355 628.635 792.71 640.83C795.335 645.155 797.875 649.54 800.95 653.565C800.16 655.185 799.085 656.685 798.1 658.195C794.445 653.51 791.34 648.095 788.1 643.105C779.105 629.265 770.715 615.1 761.925 601.135C758.515 595.885 754.795 590.69 751.61 585.31C750.72 583.805 750.21 581.75 750.905 580.065C751.42 578.825 751.9 578.6 753.03 578.12C754.22 578.68 754.975 579.7 755.695 580.77C758.16 584.445 760.065 588.515 762.455 592.245C769.515 603.275 776.58 614.43 783.355 625.635C786.065 630.11 788.395 635.6 791.765 639.56C792.16 638.55 792.535 637.69 793.2 636.82C800.91 626.68 816.68 620.875 828.82 619.105C823.835 606.87 815.125 593.49 808.625 581.69C803.505 572.395 799.135 562.66 793.565 553.635Z" fill="#FEFEFE"/>
<path d="M679.34 335.664C686.09 334.939 695.25 335.845 701.26 339.272C705.015 341.414 707.55 344.724 708.62 348.915C710.635 356.809 707.68 366.538 703.485 373.274C704.815 368.076 705.67 363.576 705.48 358.194C705.395 358.039 705.315 357.882 705.225 357.729C702.41 352.85 698.485 350.207 693.08 348.681C678.625 344.603 664.96 351.468 652.72 358.469C640.235 365.547 628.415 373.445 616.445 381.348C617.51 379.429 618.68 377.504 619.97 375.729C623.36 371.059 627.545 366.952 631.67 362.934C645.25 349.698 660.26 338.745 679.34 335.664Z" fill="#FEFEFE"/>
<path d="M730.105 537.875C731.03 536.775 731.935 535.55 733.14 534.745C734.02 534.155 733.575 534.3 734.735 534.525C735.25 535.355 735.455 535.83 736.3 536.35C737.425 534.795 736.575 533.33 736.545 531.42C737.39 530.235 737.58 530.19 738.945 529.655C739.645 530.905 740.165 531.805 741.335 532.7C742.78 532.66 742.86 532.47 744.015 531.565L744.205 531.88C744.78 530.785 745.285 530.4 746.32 529.73C747.74 529.61 748.27 529.74 749.505 530.455C749.71 531.06 749.975 531.6 749.955 532.245C750.955 533.755 752.295 535.345 752.47 537.185L751.69 538.02L751.01 538.455L750.48 539.71C748.885 540.24 747.23 539.73 746.455 541.26C747.43 542.6 749.665 544.2 751.26 544.68L751.54 544.415C751.315 544.2 751.07 544.005 750.86 543.775C749.985 542.81 749.905 542.6 750.005 541.385L751.23 540.45L751.925 540.605C753.085 542.02 754.095 543.04 755.67 543.99C755.81 544.075 755.95 544.155 756.09 544.235C756 544.47 755.915 544.705 755.825 544.935C755.325 546.155 754.395 547.13 753.545 548.12L753.43 549.005C754.415 549.885 755.28 550.28 756.475 550.805L756.51 551.47C755.31 552.42 754.115 553.535 752.725 554.185L748.67 558.035C746.855 559.78 744.9 561.55 743.365 563.55C742.045 565.265 740.84 568.02 739.315 569.445C739.16 569.59 738.34 569.655 738.25 569.65C737.695 569.64 736.785 569.295 736.285 569.155C735.31 569.99 735.57 570.295 735.445 571.52C735.955 572.61 735.885 572.76 737.02 573.175C737.23 573.255 737.44 573.32 737.65 573.39C736.885 574.465 736.955 574.49 735.675 574.78C734.465 574.065 733.215 573.405 732.105 572.54C733.195 571.41 733.8 571.225 733.8 569.61C733.39 569.195 732.88 568.595 732.425 568.24C730.62 568.09 729.15 567.335 727.52 566.605L727.46 567.03C727.945 568.375 728.375 569.25 729.425 570.26C730.095 570.905 730.49 571.22 730.765 572.145L729.745 572.72C727.78 572.005 726.545 569.26 724.78 567.93C723.64 567.965 723.865 568.03 723.13 568.785C723.485 571.715 728.665 572.84 730.755 574.755C732.925 576.745 735.88 575.685 738.435 577C738.29 577.06 738.15 577.145 738 577.18C735.35 577.78 730.645 576.425 728.245 575.315C724.03 573.375 721.04 570.47 719.48 566.05C718.205 562.43 719.12 560.845 719.48 557.4C719.81 554.3 719.08 552.955 720.625 549.94C720.835 549.335 720.845 549.27 721.165 548.6C722.205 546.435 723.1 544.715 725.5 544.005C725.83 543.91 726.435 543.755 726.755 543.63C727.805 543.215 728.53 542.89 728.955 541.81C727.96 541.245 728.42 541.59 727.59 540.77L730.105 537.875Z" fill="#D2D0D0"/>
<path d="M730.105 537.875C731.03 536.775 731.935 535.55 733.14 534.745C734.02 534.155 733.575 534.3 734.735 534.525C735.25 535.355 735.455 535.83 736.3 536.35C737.425 534.795 736.575 533.33 736.545 531.42C737.39 530.235 737.58 530.19 738.945 529.655C739.645 530.905 740.165 531.805 741.335 532.7C742.78 532.66 742.86 532.47 744.015 531.565L744.205 531.88C744.78 530.785 745.285 530.4 746.32 529.73C747.74 529.61 748.27 529.74 749.505 530.455C749.71 531.06 749.975 531.6 749.955 532.245C750.955 533.755 752.295 535.345 752.47 537.185L751.69 538.02L751.01 538.455C748.565 538.23 748.24 538.065 746.665 536.155C746.52 535.98 746.38 535.8 746.235 535.62L744.58 535.625L743.545 536.905C742.185 537.335 741.415 537.565 739.97 537.365L738.205 537.355L737.815 537.74C739.205 538.225 739.615 538.145 740.375 539.45L740.415 540.92C740.135 541.565 740.225 542.315 740.65 542.88L740.19 543.425C738.62 542.77 737.325 542.115 735.575 542.25C734.62 542.865 734.4 543.325 733.96 544.36C732.895 545.315 732.755 546.785 732.365 548.16C732.055 549.23 732.095 550.22 732.125 551.32C731.4 552.59 730.8 553.305 729.325 553.67C728.33 553.92 727.34 553.965 726.32 554C725.365 554.035 724.25 554.135 723.49 554.795C723.23 555.02 723.055 555.32 722.835 555.58L723.165 556.99L721.345 559.81C721.76 560.94 721.835 561.14 722.755 561.895L724.31 560.795L724.81 560.945C725.085 562.305 724.96 562.515 726.04 563.345C726.825 562.97 727.095 562.795 727.695 562.22C728.07 563.44 728.315 565.52 729.535 566.185C729.91 566.39 730.845 566.645 731.275 566.77L732.425 568.24C730.62 568.09 729.15 567.335 727.52 566.605L727.46 567.03C727.945 568.375 728.375 569.25 729.425 570.26C730.095 570.905 730.49 571.22 730.765 572.145L729.745 572.72C727.78 572.005 726.545 569.26 724.78 567.93C723.64 567.965 723.865 568.03 723.13 568.785C723.485 571.715 728.665 572.84 730.755 574.755C732.925 576.745 735.88 575.685 738.435 577C738.29 577.06 738.15 577.145 738 577.18C735.35 577.78 730.645 576.425 728.245 575.315C724.03 573.375 721.04 570.47 719.48 566.05C718.205 562.43 719.12 560.845 719.48 557.4C719.81 554.3 719.08 552.955 720.625 549.94C720.835 549.335 720.845 549.27 721.165 548.6C722.205 546.435 723.1 544.715 725.5 544.005C725.83 543.91 726.435 543.755 726.755 543.63C727.805 543.215 728.53 542.89 728.955 541.81C727.96 541.245 728.42 541.59 727.59 540.77L730.105 537.875Z" fill="#FEFEFE"/>
<path d="M739.97 537.365C739.125 536.38 738.195 535.135 738.085 533.82L738.83 533.485C740.85 534.025 742.67 534.785 744.58 535.625L743.545 536.905C742.185 537.335 741.415 537.565 739.97 537.365Z" fill="#322860"/>
<path d="M744.205 531.88C744.78 530.785 745.285 530.4 746.32 529.73C747.74 529.61 748.27 529.74 749.505 530.455C748.325 531.91 747.395 533.05 745.765 533.995L744.66 533.905C744.215 533.035 744.18 532.92 744.205 531.88Z" fill="#281D56"/>
<path d="M751.69 538.02C750.43 537.265 749.515 536.705 748.65 535.475C748.695 533.885 749.09 533.54 749.955 532.245C750.955 533.755 752.295 535.345 752.47 537.185L751.69 538.02Z" fill="#281D56"/>
<path d="M744.58 535.625L746.235 535.62C746.38 535.8 746.52 535.98 746.665 536.155C748.24 538.065 748.565 538.23 751.01 538.455L750.48 539.71C748.885 540.24 747.23 539.73 746.455 541.26C747.43 542.6 749.665 544.2 751.26 544.68C752.19 545.675 752.665 545.77 752.675 547.21C751.77 548.155 751.315 548.685 750.02 549.065C748.6 548.115 748.385 546.24 747.97 544.63C746.825 545.155 746.11 545.985 745.255 546.875L744.77 546.17C745.225 544.64 745.69 543.095 745.78 541.495C745.91 539.235 744.955 538.48 743.545 536.905L744.58 535.625Z" fill="#322860"/>
<path d="M733.96 544.36C734.4 543.325 734.62 542.865 735.575 542.25C737.325 542.115 738.62 542.77 740.19 543.425C739.65 544.77 739.465 544.905 738.29 545.775C736.445 545.965 735.435 545.405 733.96 544.36Z" fill="#322860"/>
<path d="M740.415 540.92C740.765 540.1 741.62 539.625 742.5 539.75C743.38 539.88 744.065 540.58 744.17 541.46C744.275 542.345 743.775 543.19 742.95 543.52C742.125 543.85 741.18 543.59 740.65 542.88C740.225 542.315 740.135 541.565 740.415 540.92Z" fill="#281D56"/>
<path d="M740.195 552.96C741.55 552.055 742.885 550.84 744.585 550.905C745.92 551.81 746.88 552.91 747.945 554.095L746.195 556.215C746.435 557.205 746.25 556.825 746.605 557.41C746.545 558.06 746.16 558.58 745.855 559.15C744.835 559.825 744.59 560.04 743.3 559.735C741.28 559.26 740.68 558.255 739.585 556.67L739.89 555.835C741.175 556.2 742.18 556.95 743.3 557.655C744.16 557.21 744.365 556.955 744.955 556.225C744 554.59 741.845 553.865 740.195 552.96Z" fill="#322860"/>
<path d="M734.58 557.725C735.515 557.76 736.08 557.875 736.935 558.3C739.17 559.405 741.255 560.5 742.075 562.9C740.55 563.35 739.045 563.565 737.57 562.775C735.625 561.735 735.125 559.68 734.58 557.725Z" fill="#322860"/>
<path d="M733.875 551.63C735.53 552.095 736.795 552.47 738.03 553.74C738.545 555.425 738.31 556.005 737.95 557.695C736.67 557.265 735.235 556.36 734.43 555.255C733.49 553.96 733.66 553.135 733.875 551.63Z" fill="#322860"/>
<path d="M741.045 545.89C742.095 545.445 743.305 545.935 743.755 546.985C744.2 548.04 743.715 549.25 742.665 549.7C741.61 550.155 740.39 549.665 739.94 548.61C739.49 547.555 739.985 546.335 741.045 545.89Z" fill="#281D56"/>
<path d="M735.23 547.2C736.23 547.325 736.925 547.535 737.86 547.865C739.085 549.135 739.015 550.49 739.16 552.145C738.07 551.79 737.16 551.315 736.155 550.78C735.255 549.31 735.295 548.87 735.23 547.2Z" fill="#281D56"/>
<path d="M587.645 607.52C588.21 607.725 588.765 607.955 589.31 608.205C602.08 614.275 614.205 626.49 619.03 639.88C628.84 667.1 610.52 688.38 603.825 712.99C602.795 716.78 601.915 720.69 601.33 724.575C600.825 727.96 601.47 733.84 600.08 736.755L598.895 736.37C598.07 732.43 598.195 727.785 598.315 723.76C598.535 715.97 599.875 708.03 602.58 700.705C606.985 688.755 613.31 678.35 614.73 665.375C616.195 651.995 614.125 637.61 605.395 626.92C598.505 618.49 589.61 614.4 578.95 613.255L587.645 607.52Z" fill="#FEFEFE"/>
<path d="M678.1 353.161C683.395 352.95 689.65 352.343 694.695 354.256C698.56 355.72 700.055 357.846 701.685 361.505C701.25 364.311 700.885 367.189 700.12 369.927C699.435 372.38 698.3 375.232 695.885 376.457C691.375 378.747 682.57 375.214 678.14 373.578C677.355 372.844 676.655 371.934 675.935 371.13C672.93 371.393 669.665 371.989 666.75 371.016C662.045 369.443 660.39 364.749 658.43 360.643C661.99 358.673 665.59 356.42 669.29 354.749C670.97 353.99 672.955 353.616 674.69 354.47C676.84 355.526 677.25 358.681 677.825 360.787L678.1 353.161Z" fill="#FEFEFE"/>
<path d="M281.562 754.865C281.733 754.955 281.908 755.03 282.072 755.13C288.281 758.9 296.268 769.44 301.294 775.03C308.923 783.52 316.628 791.92 323.841 800.77C348.038 830.455 405.76 907.55 413.555 942.08C408.613 935.28 404.95 926.795 400.75 919.45C392.789 905.235 384.287 891.335 375.264 877.77C363.099 859.28 350.008 841.57 336.813 823.81C328.987 813.275 321.378 802.595 313.161 792.355C302.932 779.61 292.007 767.43 281.562 754.865Z" fill="#FEFEFE"/>
<path d="M309.727 546.87L313.581 548.815C305.674 556.445 297.318 563.61 289.316 571.14C272.397 586.92 256.239 603.495 240.897 620.81C233.558 629.2 226.309 637.455 220.509 647.03C216.464 653.71 213.693 660.7 211.033 668C210.186 668.005 209.319 667.915 208.472 667.865C207.943 667.005 207.86 667.105 207.916 665.98C208.106 662.14 210.774 657.775 212.452 654.36C230.919 616.76 279.252 576.14 309.727 546.87Z" fill="#FEFEFE"/>
<path d="M899.84 791.91C902.08 792.865 945.865 867.67 949.855 874.53C948.805 875.775 947.67 876.955 946.56 878.15L909.165 817.05C905.66 811.27 897.855 800.3 896.1 794.595C896.87 793.245 898.515 792.63 899.84 791.91Z" fill="#FEFEFE"/>
<path d="M431.647 971.385C429.473 956.9 428.49 942.03 426.878 927.455C424.96 910.125 422.414 892.935 419.839 875.695C418.067 863.835 416.484 851.9 414.117 840.14C410.31 820.835 405.623 801.71 400.071 782.825C398.371 776.92 396.735 770.945 394.845 765.1C393.686 761.52 392.188 758.955 391.665 755.1C393.212 759.91 395.854 764.655 397.551 769.525C401.81 781.745 405.459 794.44 408.893 806.915C417.923 839.715 422.52 873.08 426.846 906.72C429.124 924.435 431.945 944.51 432.553 962.31C432.04 965.35 433.128 968.665 431.647 971.385Z" fill="#FEFEFE"/>
<path d="M926.21 787.895C928.955 787.93 931.46 788.225 934.155 788.725C944.345 802.775 954.315 825.62 962.635 841.615C960.52 841.365 958.34 840.9 956.245 841.415C955.815 841.81 955.37 842.165 955.025 842.645C952.215 839.54 949.925 833.685 947.89 829.86C940.435 815.99 933.205 802 926.21 787.895Z" fill="#D2D0D0"/>
<path d="M685.3 393.472C685.355 396.842 683.94 401.048 683.36 404.48C681.915 413.078 681.095 421.899 681.93 430.6C679.145 427.815 676.025 425.379 672.975 422.888C670.63 421.031 668.04 419.491 665.515 417.895C665.91 415.453 666.21 412.863 666.91 410.49C669.3 402.369 678.445 397.358 685.3 393.472Z" fill="#D2D0D0"/>
<path d="M595.45 578.95L595.885 579.43C596.155 582.335 593.78 586.395 592.335 588.89C585.81 600.175 579 606.095 566.445 609.515L564.105 606.59L559.245 600.495C566.515 597.695 573.675 594.755 580.15 590.355C585.415 586.78 590.18 582.525 595.45 578.95Z" fill="#FEFEFE"/>
<path d="M789.28 545.2C791.21 545.035 793.34 545.05 795.28 545.155C798.23 545.315 801.7 546.305 803.64 548.715C804.185 549.395 803.94 549.535 803.785 550.305C799.965 550.065 796.065 549.7 792.24 549.875C776.265 550.61 761.085 559.595 750.5 571.175C748.26 573.55 746.285 576.335 744.25 578.9L743.57 578.555C743.35 577.93 743.3 577.885 743.225 577.12C742.86 573.57 744.705 569.52 746.865 566.825C756.24 555.13 774.56 546.62 789.28 545.2Z" fill="#FEFEFE"/>
<path d="M700.77 380.529C700.77 380.638 700.785 380.749 700.77 380.858C700.125 385.27 698.165 389.945 696.865 394.219C694.055 403.423 691.27 412.828 689.86 422.36C689.47 424.993 689.095 432.897 687.135 434.696C684.34 423.787 687.05 400.267 690.33 389.355C693.66 386.23 697.51 383.799 700.77 380.529Z" fill="#FEFEFE"/>
<path d="M811.54 708.235C813.535 705.54 815.43 702.68 817.585 700.105C819.37 697.965 821.925 696.455 824.74 696.245C827.02 696.07 829.735 696.67 831.34 698.415C832.2 699.35 832.48 700.63 832.285 701.865C831.045 709.855 824.345 709.825 819.67 713.395C819.545 713.49 819.44 713.6 819.325 713.705L819.195 713.63C820.165 714.405 820.915 714.965 822.22 714.93C826.275 714.835 830.195 710.705 832.65 707.8L833.12 708.585C830.785 712.33 826.355 713.085 824.575 715.83C826.085 716.08 826.97 715.77 828.23 714.89C830.85 713.06 832.92 710.555 834.915 708.09L835.27 708.87C834.215 710.805 832.22 713.305 830.425 714.6C828.245 716.175 825.6 716.74 822.95 716.305C818.085 715.495 814.355 712.065 811.54 708.235Z" fill="#FEFEFE"/>
<path d="M874.4 776.53C876.35 776.905 879.04 777.355 880.355 779.015C881.175 780.055 881.425 780.98 881.165 782.28C880.18 787.22 872.325 791.775 868.38 794.54L867.725 795.01C866.485 794.485 866.15 793.71 865.39 792.615C863.84 790.385 862.08 787.385 862.88 784.555C864.035 780.485 870.91 778.155 874.4 776.53Z" fill="#FEFEFE"/>
<path d="M691.58 451.5C694.445 452.931 696.74 459.695 697.92 462.478C689.365 462.535 681.825 462.194 673.83 458.9C669.85 457.113 666.02 455.014 662.37 452.622C666.49 453.256 670.615 453.933 674.76 454.366C680.775 454.994 686.61 455.538 691.58 451.5Z" fill="#FEFEFE"/>
<path d="M839.315 717.19C840.625 717.41 841.705 717.68 842.915 718.25C845.36 719.4 847.315 720.95 848.155 723.605C849.565 728.095 847.03 732.18 845.12 736.075L844.29 736.23C841.375 731.09 838.07 729.485 832.815 727.225C834.815 723.76 837.055 720.485 839.315 717.19Z" fill="#FEFEFE"/>
<path d="M837.53 626.155L837.9 626.235C841.98 629.64 846.23 639.95 848.665 645.03L843.975 649.155C839.79 641.935 835.705 634.65 831.73 627.315L837.53 626.155Z" fill="#FEFEFE"/>
<path d="M955.025 842.645C955.37 842.165 955.815 841.81 956.245 841.415C958.34 840.9 960.52 841.365 962.635 841.615C965.68 848.255 968.645 854.95 972.05 861.42L965.94 862.515C962.385 855.845 958.745 849.225 955.025 842.645Z" fill="#FEFEFE"/>
<path d="M656.82 361.452C657.065 361.663 657.355 361.831 657.555 362.086C658.785 363.66 659.615 367.178 659.045 369.045C658.53 370.733 657.22 371.988 655.73 372.846C652.84 374.509 650.03 373.6 647.025 372.735L642.25 369.993C647.025 367.018 651.955 364.272 656.82 361.452Z" fill="#FEFEFE"/>
<path d="M970.535 872.565L970.83 873.205C970.505 874.075 970.175 874.795 969.635 875.56C966.35 880.215 959.89 884.065 954.245 884.775C951.555 885.115 950.36 884.42 948.335 882.76C948.165 882.095 948.195 881.485 948.185 880.8C949.01 878.85 950.505 877.63 952.005 876.195C953.65 877.29 955.365 878.17 957.115 879.07C962.37 877.65 966.025 875.57 970.535 872.565Z" fill="#D2D0D0"/>
<path d="M432.553 962.31C433.598 968.72 437.128 1006.06 436.07 1010.32C434.867 1003.03 434.381 995.59 433.569 988.245C432.954 982.68 431.91 976.96 431.647 971.385C433.128 968.665 432.04 965.35 432.553 962.31Z" fill="#D2D0D0"/>
<path d="M641.32 470.33L642.655 468.551C647.22 473.322 651.695 477.919 656.73 482.207C650.325 479.298 645.42 476.201 641.32 470.33Z" fill="#FEFEFE"/>
<path d="M847.835 786.095L854.28 787.55C850.46 789.745 846.72 791.88 843.31 794.69L838.965 798.185C842.005 794.215 844.96 790.185 847.835 786.095Z" fill="#FEFEFE"/>
<path d="M695.775 307.51L696.525 307.689C696.71 309.356 696.11 310.611 695.12 311.946C694.07 311.004 693.125 310.142 692.305 308.98C693.25 307.852 694.38 307.867 695.775 307.51Z" fill="#FEFEFE"/>
</g>
<defs>
<linearGradient id="paint0_linear_6_2" x1="480.78" y1="538.88" x2="389.04" y2="633.07" gradientUnits="userSpaceOnUse">
<stop stop-color="#D3D1D0"/>
<stop offset="1" stop-color="#FBF8F4"/>
</linearGradient>
<clipPath id="clip0_6_2">
<rect width="1024" height="1024" fill="white"/>
</clipPath>
</defs>
</svg>
